<svg width="352" height="46" viewBox="0 0 352 46" fill="none" xmlns="http://www.w3.org/2000/svg">
<path fill-rule="evenodd" clip-rule="evenodd" d="M46.8787 17.3355C41.6301 17.3355 38.3987 21.4646 38.3987 26.4264C38.3987 30.707 40.7674 35.4486 46.8787 35.4486C52.4324 35.4486 54.005 31.7531 54.6486 29.6885H51.7555C51.092 29.6885 50.6076 29.9637 50.1565 30.5418C49.9641 30.762 48.9953 31.9113 47.0445 31.9113C43.0965 31.9113 43.0368 28.6562 42.9638 27.5551H54.9406C55.2788 22.5657 52.7376 17.3286 46.8852 17.3286M42.9638 24.5614C42.9638 24.2105 43.2292 20.8935 46.7592 20.8935C49.0882 20.8935 49.9375 22.2698 50.3821 24.5614H42.9638ZM57.7607 11.3207C61.6556 11.3207 62.2528 11.9332 62.2861 15.1402V35.0838C58.3709 35.0838 57.787 33.9484 57.7607 30.6863V11.3207ZM66.5591 11.3207C70.4608 11.3207 71.0578 11.9332 71.084 15.1402V35.0838C67.1693 35.0838 66.592 33.9484 66.5591 30.6863V11.3207ZM36.6337 28.4222C35.9967 33.3496 32.6857 35.4555 28.6381 35.4555C24.0066 35.4555 20.2643 32.2348 20.2643 26.6329C20.2643 21.6298 23.0179 17.3424 28.731 17.3424C32.606 17.3424 36.2953 19.4276 36.5342 23.8733H33.3293C32.3274 23.8733 31.9955 23.3571 31.7833 22.779C31.3785 21.7261 30.4495 20.9141 28.6978 20.9141C25.8911 20.9141 24.8161 23.7975 24.8161 26.4333C24.8161 29.2136 25.8579 31.9319 28.6049 31.9319C30.3699 31.9319 31.4051 31.1405 31.9757 29.5302C32.3672 28.3947 33.4155 28.436 33.4155 28.436H36.6337V28.4222ZM0 11.3138C4.44567 11.3138 5.01631 12.4975 5.02295 15.9453V21.1756C5.02295 21.1756 10.1189 15.5462 12.0166 13.4816C13.901 11.4102 15.4404 11.3207 17.8159 11.3207H20.271L11.3199 20.7076L21.1401 35.0908H18.705C15.3475 35.0908 14.4451 34.5471 12.5674 31.6223C10.6895 28.6975 7.90265 24.4032 7.90265 24.4032L5.01631 27.4381V35.0908H0V11.3138ZM121.977 35.5931H118.54L118.023 32.6752C116.112 35.0908 113.789 36.2056 110.591 36.2056C103.717 36.2056 98.959 30.7689 98.959 22.8823C98.959 14.9956 103.963 9.41443 111.115 9.41443C116.742 9.41443 121.008 12.9792 121.672 18.3815H118.242C117.3 18.3815 116.397 17.8654 115.985 16.9845C115.136 15.1539 113.391 14.1285 111.049 14.1285C106.915 14.1285 104.42 17.4043 104.42 22.8823C104.42 28.3603 106.922 31.7048 111.228 31.7048C114.632 31.7048 116.994 29.365 117.127 25.9103H111.606V24.4445C111.606 22.9442 112.774 21.733 114.22 21.733H121.991V35.6L121.977 35.5931ZM97.2141 27.0802C97.2141 32.6683 93.1863 36.6598 87.5404 36.6598C82.3378 36.6598 78.4893 33.8107 78.1977 28.374H82.0856C82.7561 28.374 83.34 28.8283 83.5652 29.4889C84.1425 31.1887 85.6293 32.2899 87.547 32.2899C90.1477 32.2899 91.9793 30.1977 91.9793 27.1972C91.9793 24.1967 90.2205 22.2973 87.5069 22.2973C85.7817 22.2973 84.6469 22.9442 83.6585 24.4995H79.0068L81.993 9.86863H95.7476C95.7476 13.9152 95.1572 14.5346 92.0653 14.5621H85.563L84.3218 20.2465C85.5696 18.9527 86.9953 18.3815 89.0463 18.3815C93.9567 18.3815 97.2141 21.8431 97.2141 27.0871V27.0802Z" fill="#652D86"/>
<mask id="mask0_2486_233" style="mask-type:luminance" maskUnits="userSpaceOnUse" x="140" y="0" width="212" height="46">
<path d="M352 0.0872192H140.154V45.9871H352V0.0872192Z" fill="white"/>
</mask>
<g mask="url(#mask0_2486_233)">
<mask id="mask1_2486_233" style="mask-type:luminance" maskUnits="userSpaceOnUse" x="140" y="0" width="212" height="46">
<path d="M351.232 0.0872192H140.154V45.9871H351.232V0.0872192Z" fill="white"/>
</mask>
<g mask="url(#mask1_2486_233)">
<path d="M189.156 18.9983C189.156 19.1878 188.998 19.3457 188.809 19.3457C188.619 19.3457 188.461 19.1878 188.461 18.9983C188.461 18.8087 188.619 18.6509 188.809 18.6509C188.998 18.6509 189.156 18.8087 189.156 18.9983ZM187.987 10.7863C187.798 10.7863 187.64 10.9442 187.64 11.1337C187.64 11.3232 187.798 11.4812 187.987 11.4812C188.177 11.4812 188.335 11.3232 188.335 11.1337C188.335 10.9442 188.177 10.7863 187.987 10.7863ZM157.73 5.74867C157.73 5.55916 157.572 5.40124 157.382 5.40124C157.193 5.40124 157.035 5.55916 157.035 5.74867C157.035 5.93817 157.193 6.09609 157.382 6.09609C157.572 6.09609 157.73 5.93817 157.73 5.74867ZM175.069 8.17276C175.259 8.17276 175.417 8.01484 175.417 7.82534C175.417 7.63583 175.259 7.47791 175.069 7.47791C174.88 7.47791 174.722 7.63583 174.722 7.82534C174.722 8.01484 174.88 8.17276 175.069 8.17276ZM161.322 8.08591C161.322 7.8964 161.164 7.73848 160.975 7.73848C160.785 7.73848 160.627 7.8964 160.627 8.08591C160.627 8.27541 160.785 8.43333 160.975 8.43333C161.164 8.43333 161.322 8.27541 161.322 8.08591ZM187.514 13.8185C187.703 13.8185 187.861 13.6605 187.861 13.471C187.861 13.2815 187.703 13.1236 187.514 13.1236C187.324 13.1236 187.166 13.2815 187.166 13.471C187.166 13.6605 187.324 13.8185 187.514 13.8185ZM180.889 16.4242C180.889 18.2797 182.389 19.78 184.245 19.78C186.1 19.78 187.601 18.2797 187.601 16.4242C187.601 14.5686 186.092 13.0683 184.245 13.0683C182.397 13.0683 180.889 14.5686 180.889 16.4242ZM182.594 11.4338C182.594 12.1998 183.21 12.8156 183.976 12.8156C184.742 12.8156 185.358 12.1918 185.358 11.4338C185.358 10.6758 184.742 10.052 183.976 10.052C183.21 10.052 182.594 10.6758 182.594 11.4338ZM182.255 12.8946C182.255 12.7051 182.097 12.5472 181.907 12.5472C181.718 12.5472 181.56 12.7051 181.56 12.8946C181.56 13.0841 181.718 13.242 181.907 13.242C182.097 13.242 182.255 13.0841 182.255 12.8946ZM181.978 8.78866C181.994 9.16765 182.31 9.46768 182.697 9.45982C183.076 9.44402 183.376 9.1282 183.368 8.74127C183.352 8.36227 183.037 8.06221 182.65 8.07011C182.271 8.08591 181.971 8.40175 181.978 8.78866ZM181.978 6.8936C182.168 6.8936 182.326 6.73567 182.326 6.54617C182.326 6.35666 182.168 6.19874 181.978 6.19874C181.789 6.19874 181.631 6.35666 181.631 6.54617C181.631 6.73567 181.789 6.8936 181.978 6.8936ZM180.802 11.3232C180.802 11.7023 181.11 12.0181 181.497 12.0181C181.884 12.0181 182.192 11.7103 182.192 11.3232C182.192 10.9364 181.884 10.6364 181.497 10.6364C181.11 10.6364 180.802 10.9442 180.802 11.3232ZM175.496 9.33351C175.496 10.8653 176.735 12.0971 178.259 12.0971C179.783 12.0971 181.023 10.8574 181.023 9.33351C181.023 7.80954 179.783 6.56985 178.259 6.56985C176.735 6.56985 175.496 7.80954 175.496 9.33351ZM177.509 5.35386C177.699 5.35386 177.857 5.19594 177.857 5.00643C177.857 4.81693 177.699 4.659 177.509 4.659C177.32 4.659 177.162 4.81693 177.162 5.00643C177.162 5.19594 177.32 5.35386 177.509 5.35386ZM175.93 6.98045C176.309 6.96466 176.609 6.64881 176.593 6.26191C176.578 5.88289 176.262 5.58285 175.883 5.59864C175.504 5.61443 175.204 5.93028 175.212 6.31717C175.227 6.6962 175.543 6.99624 175.93 6.98834M171.856 5.21962C171.856 5.98554 172.472 6.60144 173.237 6.60144C174.003 6.60144 174.619 5.97765 174.619 5.21962C174.619 4.46161 174.003 3.83782 173.237 3.83782C172.472 3.83782 171.856 4.4537 171.856 5.21962ZM172.061 1.76115C172.25 1.76115 172.408 1.60322 172.408 1.41372C172.408 1.22421 172.25 1.06629 172.061 1.06629C171.872 1.06629 171.714 1.22421 171.714 1.41372C171.714 1.60322 171.872 1.76115 172.061 1.76115ZM171.958 7.6832C172.187 7.6832 172.377 7.4937 172.377 7.26471C172.377 7.03572 172.195 6.84622 171.958 6.84622C171.722 6.84622 171.54 7.02783 171.54 7.26471C171.54 7.50159 171.729 7.6832 171.958 7.6832ZM182.942 27.2181C182.752 27.2181 182.594 27.3761 182.594 27.5656C182.594 27.7549 182.752 27.913 182.942 27.913C183.131 27.913 183.289 27.7549 183.289 27.5656C183.289 27.3761 183.131 27.2181 182.942 27.2181ZM164.323 7.54897C164.323 9.45982 165.87 11.0075 167.781 11.0075C169.692 11.0075 171.24 9.45982 171.24 7.54897C171.24 5.63811 169.692 4.09048 167.781 4.09048C165.87 4.09048 164.323 5.63811 164.323 7.54897ZM169.89 3.99574C170.276 3.97994 170.569 3.6641 170.561 3.27719C170.545 2.89819 170.229 2.59813 169.85 2.61392C169.463 2.62971 169.171 2.94555 169.179 3.33247C169.187 3.71147 169.51 4.01153 169.89 4.00363M168.445 1.76905C168.634 1.76905 168.792 1.61112 168.792 1.42162C168.792 1.2321 168.634 1.07418 168.445 1.07418C168.255 1.07418 168.097 1.2321 168.097 1.42162C168.097 1.61112 168.255 1.76905 168.445 1.76905ZM165.041 4.89589C165.231 4.89589 165.389 4.73796 165.389 4.54846C165.389 4.35896 165.231 4.20104 165.041 4.20104C164.852 4.20104 164.694 4.35896 164.694 4.54846C164.694 4.73796 164.852 4.89589 165.041 4.89589ZM164.212 9.98096C164.402 9.98096 164.56 9.82305 164.56 9.63354C164.56 9.44402 164.402 9.28611 164.212 9.28611C164.023 9.28611 163.865 9.44402 163.865 9.63354C163.865 9.82305 164.023 9.98096 164.212 9.98096ZM163.075 6.55406C163.841 6.55406 164.457 5.93817 164.457 5.17224C164.457 4.40633 163.841 3.79044 163.075 3.79044C162.309 3.79044 161.693 4.40633 161.693 5.17224C161.693 5.93817 162.309 6.55406 163.075 6.55406ZM161.046 5.36175C161.235 5.36175 161.393 5.20383 161.393 5.01432C161.393 4.82482 161.235 4.6669 161.046 4.6669C160.856 4.6669 160.699 4.82482 160.699 5.01432C160.699 5.20383 160.856 5.36175 161.046 5.36175ZM160.872 6.98045C161.251 6.98045 161.567 6.6725 161.567 6.2856C161.567 5.89868 161.259 5.59074 160.872 5.59074C160.485 5.59074 160.177 5.89868 160.177 6.2856C160.177 6.6725 160.485 6.98045 160.872 6.98045ZM164.726 11.7103C165.128 11.7103 165.452 11.3865 165.452 10.9838C165.452 10.5811 165.128 10.2573 164.726 10.2573C164.323 10.2573 163.999 10.5811 163.999 10.9838C163.999 11.3865 164.323 11.7103 164.726 11.7103ZM163.889 7.66742C163.889 7.26471 163.565 6.94098 163.162 6.94098C162.759 6.94098 162.436 7.26471 162.436 7.66742C162.436 8.07011 162.759 8.39385 163.162 8.39385C163.565 8.39385 163.889 8.07011 163.889 7.66742ZM165.531 11.876C165.531 12.184 165.776 12.4288 166.084 12.4288C166.392 12.4288 166.636 12.184 166.636 11.876C166.636 11.568 166.392 11.3232 166.084 11.3232C165.776 11.3232 165.531 11.568 165.531 11.876ZM158.717 4.98275C159.483 4.98275 160.098 4.35896 160.098 3.60093C160.098 2.8429 159.475 2.21911 158.717 2.21911C157.959 2.21911 157.335 2.835 157.335 3.60093C157.335 4.36685 157.959 4.98275 158.717 4.98275ZM156.806 2.28229C157.185 2.26649 157.485 1.95065 157.477 1.56374C157.461 1.18472 157.145 0.884678 156.758 0.90047C156.379 0.916262 156.079 1.2321 156.095 1.61901C156.111 1.99802 156.427 2.29808 156.814 2.29019M155.692 0.797821C155.882 0.797821 156.04 0.639899 156.04 0.450394C156.04 0.260888 155.882 0.102966 155.692 0.102966C155.503 0.102966 155.345 0.260888 155.345 0.450394C155.345 0.639899 155.503 0.797821 155.692 0.797821ZM154.705 7.55686C155.85 7.55686 156.782 6.62513 156.782 5.48019C156.782 4.33526 155.85 3.40353 154.705 3.40353C153.561 3.40353 152.629 4.33526 152.629 5.48019C152.629 6.62513 153.561 7.55686 154.705 7.55686ZM153.189 2.97714C153.379 2.97714 153.537 2.81922 153.537 2.62971C153.537 2.44021 153.379 2.28229 153.189 2.28229C153 2.28229 152.842 2.44021 152.842 2.62971C152.842 2.81922 153 2.97714 153.189 2.97714ZM151.989 5.69338C152.179 5.69338 152.337 5.53546 152.337 5.34596C152.337 5.15646 152.179 4.99853 151.989 4.99853C151.8 4.99853 151.642 5.15646 151.642 5.34596C151.642 5.53546 151.8 5.69338 151.989 5.69338ZM146.683 8.85182C146.683 10.7152 148.199 12.2314 150.062 12.2314C151.926 12.2314 153.442 10.7152 153.442 8.85182C153.442 6.98834 151.926 5.4723 150.062 5.4723C148.199 5.4723 146.683 6.98834 146.683 8.85182ZM147.101 5.88289C147.48 5.88289 147.788 5.57495 147.788 5.18804C147.788 4.80113 147.48 4.49318 147.101 4.49318C146.722 4.49318 146.407 4.80113 146.407 5.18804C146.407 5.57495 146.715 5.88289 147.101 5.88289ZM146.067 11.4733C146.446 11.4733 146.762 11.1653 146.762 10.7785C146.762 10.3916 146.454 10.0836 146.067 10.0836C145.68 10.0836 145.372 10.3916 145.372 10.7785C145.372 11.1653 145.68 11.4733 146.067 11.4733ZM142.466 11.6944C142.466 12.4603 143.082 13.0762 143.848 13.0762C144.614 13.0762 145.23 12.4603 145.23 11.6944C145.23 10.9286 144.614 10.3126 143.848 10.3126C143.082 10.3126 142.466 10.9286 142.466 11.6944ZM165.389 43.105C164.781 43.105 164.283 43.6025 164.283 44.2105C164.283 44.8185 164.781 45.3159 165.389 45.3159C165.997 45.3159 166.494 44.8263 166.494 44.2105C166.494 43.5947 165.997 43.105 165.389 43.105ZM142.893 9.32557C143.272 9.32557 143.588 9.01768 143.588 8.63073C143.588 8.24383 143.28 7.93588 142.893 7.93588C142.506 7.93588 142.198 8.24383 142.198 8.63073C142.198 9.01768 142.506 9.32557 142.893 9.32557ZM143.098 6.94887C143.288 6.94887 143.446 6.79095 143.446 6.60144C143.446 6.41193 143.288 6.25401 143.098 6.25401C142.909 6.25401 142.751 6.41193 142.751 6.60144C142.751 6.79095 142.909 6.94887 143.098 6.94887ZM141.716 14.2922C141.937 14.2922 142.111 14.1106 142.111 13.8975C142.111 13.6842 141.93 13.5026 141.716 13.5026C141.503 13.5026 141.322 13.6842 141.322 13.8975C141.322 14.1106 141.503 14.2922 141.716 14.2922ZM141.535 19.8352C141.535 19.4563 141.227 19.1403 140.84 19.1403C140.453 19.1403 140.145 19.4484 140.145 19.8352C140.145 20.2222 140.453 20.5301 140.84 20.5301C141.227 20.5301 141.535 20.2222 141.535 19.8352ZM141.164 29.2474C140.785 29.2474 140.469 29.5553 140.469 29.9423C140.469 30.3292 140.777 30.6371 141.164 30.6371C141.551 30.6371 141.858 30.3292 141.858 29.9423C141.858 29.5553 141.551 29.2474 141.164 29.2474ZM144.164 30.1397C143.398 30.1397 142.782 30.7555 142.782 31.5215C142.782 32.2874 143.406 32.9033 144.164 32.9033C144.922 32.9033 145.546 32.2874 145.546 31.5215C145.546 30.7555 144.922 30.1397 144.164 30.1397ZM143.817 35.0826C143.627 35.0826 143.469 35.2405 143.469 35.43C143.469 35.6195 143.627 35.7774 143.817 35.7774C144.006 35.7774 144.164 35.6195 144.164 35.43C144.164 35.2405 144.006 35.0826 143.817 35.0826ZM147.094 31.8926C146.328 31.8926 145.712 32.5085 145.712 33.2744C145.712 34.0403 146.328 34.6563 147.094 34.6563C147.859 34.6563 148.475 34.0325 148.475 33.2744C148.475 32.5164 147.859 31.8926 147.094 31.8926ZM147.528 35.2642C147.149 35.2642 146.833 35.5722 146.833 35.9591C146.833 36.3459 147.141 36.646 147.528 36.646C147.915 36.646 148.223 36.3381 148.223 35.9591C148.223 35.58 147.915 35.2642 147.528 35.2642ZM147.599 30.2266C147.599 31.2609 148.436 32.0979 149.462 32.0979C150.489 32.0979 151.334 31.2609 151.334 30.2266C151.334 29.1921 150.497 28.3551 149.462 28.3551C148.428 28.3551 147.599 29.1921 147.599 30.2266ZM150.126 12.9499C150.126 12.7604 149.968 12.6025 149.778 12.6025C149.589 12.6025 149.431 12.7604 149.431 12.9499C149.431 13.1394 149.589 13.2973 149.778 13.2973C149.968 13.2973 150.126 13.1394 150.126 12.9499ZM159.356 10.4231C159.356 10.6126 159.514 10.7705 159.704 10.7705C159.893 10.7705 160.051 10.6126 160.051 10.4231C160.051 10.2337 159.893 10.0757 159.704 10.0757C159.514 10.0757 159.356 10.2337 159.356 10.4231ZM162.049 7.38315C162.049 7.19364 161.891 7.03572 161.701 7.03572C161.512 7.03572 161.354 7.19364 161.354 7.38315C161.354 7.57266 161.512 7.73058 161.701 7.73058C161.891 7.73058 162.049 7.57266 162.049 7.38315ZM162.412 12.2866C162.412 12.4761 162.57 12.634 162.759 12.634C162.949 12.634 163.107 12.4761 163.107 12.2866C163.107 12.0971 162.949 11.9392 162.759 11.9392C162.57 11.9392 162.412 12.0971 162.412 12.2866ZM149.352 27.9919C149.605 27.9919 149.818 27.7866 149.818 27.5261C149.818 27.2655 149.612 27.0601 149.352 27.0601C149.091 27.0601 148.886 27.2655 148.886 27.5261C148.886 27.7866 149.091 27.9919 149.352 27.9919ZM149.115 13.6684C149.115 12.5235 148.183 11.5918 147.038 11.5918C145.893 11.5918 144.962 12.5235 144.962 13.6684C144.962 14.8133 145.893 15.7451 147.038 15.7451C148.183 15.7451 149.115 14.8133 149.115 13.6684ZM140.958 22.1172C140.958 22.8831 141.574 23.499 142.34 23.499C143.106 23.499 143.722 22.8831 143.722 22.1172C143.722 21.3514 143.106 20.7354 142.34 20.7354C141.574 20.7354 140.958 21.3514 140.958 22.1172ZM144.385 21.9672C144.385 22.354 144.693 22.6621 145.08 22.6621C145.467 22.6621 145.775 22.354 145.775 21.9672C145.775 21.5803 145.467 21.2803 145.08 21.2803C144.693 21.2803 144.385 21.5881 144.385 21.9672ZM147.938 16.432C147.938 16.2426 147.781 16.0846 147.591 16.0846C147.402 16.0846 147.244 16.2426 147.244 16.432C147.244 16.6215 147.402 16.7794 147.591 16.7794C147.781 16.7794 147.938 16.6215 147.938 16.432ZM146.667 22.2672C147.046 22.2672 147.362 21.9594 147.362 21.5723C147.362 21.1855 147.054 20.8775 146.667 20.8775C146.28 20.8775 145.972 21.1855 145.972 21.5723C145.972 21.9594 146.28 22.2672 146.667 22.2672ZM147.283 23.0885C147.473 23.0885 147.631 22.9306 147.631 22.7411C147.631 22.5515 147.473 22.3937 147.283 22.3937C147.094 22.3937 146.936 22.5515 146.936 22.7411C146.936 22.9306 147.094 23.0885 147.283 23.0885ZM145.822 30.6055C145.822 30.9845 146.13 31.2925 146.517 31.2925C146.904 31.2925 147.212 30.9845 147.212 30.6055C147.212 30.2266 146.904 29.9107 146.517 29.9107C146.13 29.9107 145.822 30.2186 145.822 30.6055ZM145.325 29.6737C147.204 29.6737 148.736 28.1498 148.736 26.2627C148.736 24.3755 147.212 22.8516 145.325 22.8516C143.438 22.8516 141.914 24.3755 141.914 26.2627C141.914 28.1498 143.438 29.6737 145.325 29.6737ZM144.701 14.3712C144.701 13.9922 144.393 13.6763 144.006 13.6763C143.619 13.6763 143.319 13.9843 143.319 14.3712C143.319 14.7581 143.627 15.066 144.006 15.066C144.385 15.066 144.701 14.7581 144.701 14.3712ZM147.402 18.3192C147.402 16.7952 146.162 15.5556 144.638 15.5556C143.114 15.5556 141.874 16.7952 141.874 18.3192C141.874 19.8431 143.114 21.0908 144.638 21.0908C146.162 21.0908 147.402 19.851 147.402 18.3192ZM155.361 35.43C155.361 33.5823 153.845 32.0821 151.981 32.0821C150.118 32.0821 148.602 33.5823 148.602 35.43C148.602 37.2777 150.118 38.7779 151.981 38.7779C153.845 38.7779 155.361 37.2777 155.361 35.43ZM152.463 40.1282C152.463 39.7413 152.155 39.4334 151.768 39.4334C151.381 39.4334 151.073 39.7413 151.073 40.1282C151.073 40.5151 151.381 40.8231 151.768 40.8231C152.155 40.8231 152.463 40.5151 152.463 40.1282ZM152.866 42.1733C152.676 42.1733 152.518 42.3312 152.518 42.5207C152.518 42.7102 152.676 42.8681 152.866 42.8681C153.055 42.8681 153.213 42.7102 153.213 42.5207C153.213 42.3312 153.055 42.1733 152.866 42.1733ZM154.105 38.6517C153.726 38.6517 153.41 38.9596 153.41 39.3465C153.41 39.7333 153.718 40.0414 154.105 40.0414C154.492 40.0414 154.8 39.7333 154.8 39.3465C154.8 38.9596 154.492 38.6517 154.105 38.6517ZM159.19 38.2885C159.19 37.1434 158.259 36.2117 157.114 36.2117C155.969 36.2117 155.037 37.1434 155.037 38.2885C155.037 39.4334 155.969 40.3651 157.114 40.3651C158.259 40.3651 159.19 39.4334 159.19 38.2885ZM157.287 43.713C157.098 43.713 156.94 43.8709 156.94 44.0604C156.94 44.2499 157.098 44.4078 157.287 44.4078C157.477 44.4078 157.635 44.2499 157.635 44.0604C157.635 43.8709 157.477 43.713 157.287 43.713ZM158.243 40.4361C157.864 40.4361 157.548 40.7441 157.548 41.131C157.548 41.5179 157.856 41.8259 158.243 41.8259C158.63 41.8259 158.938 41.5179 158.938 41.131C158.938 40.7441 158.63 40.4361 158.243 40.4361ZM159.814 42.8839C159.435 42.8839 159.119 43.1918 159.119 43.5788C159.119 43.9657 159.427 44.2736 159.814 44.2736C160.201 44.2736 160.509 43.9657 160.509 43.5788C160.509 43.1918 160.201 42.8839 159.814 42.8839ZM158.282 6.18295C157.137 6.18295 156.206 7.11469 156.206 8.25962C156.206 9.40456 157.137 10.3362 158.282 10.3362C159.427 10.3362 160.359 9.40456 160.359 8.25962C160.359 7.11469 159.427 6.18295 158.282 6.18295ZM161.37 38.8174C160.225 38.8174 159.293 39.7491 159.293 40.8942C159.293 42.0391 160.225 42.9708 161.37 42.9708C162.515 42.9708 163.446 42.0391 163.446 40.8942C163.446 39.7491 162.515 38.8174 161.37 38.8174ZM162.957 43.5867C162.767 43.5867 162.609 43.7445 162.609 43.9341C162.609 44.1236 162.767 44.2816 162.957 44.2816C163.146 44.2816 163.304 44.1236 163.304 43.9341C163.304 43.7445 163.146 43.5867 162.957 43.5867ZM163.928 42.8919C163.739 42.8919 163.581 43.0497 163.581 43.2393C163.581 43.4288 163.739 43.5867 163.928 43.5867C164.118 43.5867 164.275 43.4288 164.275 43.2393C164.275 43.0497 164.118 42.8919 163.928 42.8919ZM164.354 41.2416C163.975 41.2416 163.66 41.5495 163.66 41.9364C163.66 42.3233 163.968 42.6313 164.354 42.6313C164.741 42.6313 165.041 42.3233 165.041 41.9364C165.041 41.5495 164.733 41.2416 164.354 41.2416ZM164.528 39.5676C164.149 39.5676 163.833 39.8755 163.833 40.2624C163.833 40.6494 164.141 40.9573 164.528 40.9573C164.915 40.9573 165.215 40.6494 165.215 40.2624C165.215 39.8755 164.907 39.5676 164.528 39.5676ZM165.444 13.1158C165.444 12.5077 164.947 12.0103 164.339 12.0103C163.731 12.0103 163.233 12.5077 163.233 13.1158C163.233 13.7238 163.731 14.2212 164.339 14.2212C164.947 14.2212 165.444 13.7238 165.444 13.1158ZM163.644 10.1468C163.644 9.24665 162.917 8.52019 162.009 8.52019C161.101 8.52019 160.383 9.24665 160.383 10.1468C160.383 11.0469 161.109 11.7812 162.009 11.7812C162.909 11.7812 163.644 11.0548 163.644 10.1468ZM154.824 8.22803C154.216 8.22803 153.726 8.71759 153.726 9.32557C153.726 9.93356 154.216 10.4231 154.824 10.4231C155.432 10.4231 155.921 9.93356 155.921 9.32557C155.921 8.71759 155.432 8.22803 154.824 8.22803ZM168.918 37.8462C168.918 38.0752 169.108 38.2647 169.337 38.2647C169.566 38.2647 169.755 38.0831 169.755 37.8462C169.755 37.6094 169.566 37.4277 169.337 37.4277C169.108 37.4277 168.918 37.6094 168.918 37.8462ZM168.279 38.4384C166.747 38.4384 165.515 39.6782 165.515 41.2021C165.515 42.726 166.755 43.9657 168.279 43.9657C169.803 43.9657 171.042 42.726 171.042 41.2021C171.042 39.6782 169.803 38.4384 168.279 38.4384ZM172.14 40.3019C171.753 40.3019 171.445 40.6099 171.445 40.9968C171.445 41.3836 171.753 41.6917 172.14 41.6917C172.527 41.6917 172.835 41.3836 172.835 40.9968C172.835 40.6099 172.527 40.3019 172.14 40.3019ZM174.532 40.5467C173.766 40.5467 173.151 41.1626 173.151 41.9285C173.151 42.6944 173.766 43.3103 174.532 43.3103C175.298 43.3103 175.914 42.6944 175.914 41.9285C175.914 41.1626 175.298 40.5467 174.532 40.5467ZM173.703 44.3525C173.514 44.3525 173.356 44.5105 173.356 44.7C173.356 44.8896 173.514 45.0474 173.703 45.0474C173.893 45.0474 174.051 44.8896 174.051 44.7C174.051 44.5105 173.893 44.3525 173.703 44.3525ZM167.023 45.3159C166.834 45.3159 166.676 45.4738 166.676 45.6633C166.676 45.8529 166.834 46.0108 167.023 46.0108C167.213 46.0108 167.371 45.8529 167.371 45.6633C167.371 45.4738 167.213 45.3159 167.023 45.3159ZM175.417 37.5146C175.038 37.5146 174.722 37.8225 174.722 38.2094C174.722 38.5964 175.03 38.9043 175.417 38.9043C175.804 38.9043 176.112 38.5964 176.112 38.2094C176.112 37.8225 175.804 37.5146 175.417 37.5146ZM174.382 39.9308C174.572 39.9308 174.73 39.7729 174.73 39.5834C174.73 39.3939 174.572 39.2359 174.382 39.2359C174.193 39.2359 174.035 39.3939 174.035 39.5834C174.035 39.7729 174.193 39.9308 174.382 39.9308ZM170.845 9.91776C170.845 10.1073 171.003 10.2652 171.192 10.2652C171.382 10.2652 171.54 10.1073 171.54 9.91776C171.54 9.72825 171.382 9.57033 171.192 9.57033C171.003 9.57033 170.845 9.72825 170.845 9.91776ZM173.056 35.1063C173.056 34.9168 172.898 34.7589 172.708 34.7589C172.519 34.7589 172.361 34.9168 172.361 35.1063C172.361 35.2958 172.519 35.4537 172.708 35.4537C172.898 35.4537 173.056 35.2958 173.056 35.1063ZM172.187 35.7301C171.042 35.7301 170.111 36.6618 170.111 37.8067C170.111 38.9516 171.042 39.8834 172.187 39.8834C173.332 39.8834 174.264 38.9516 174.264 37.8067C174.264 36.6618 173.332 35.7301 172.187 35.7301ZM175.006 10.7943C175.196 10.7943 175.354 10.6364 175.354 10.4468C175.354 10.2573 175.196 10.0994 175.006 10.0994C174.817 10.0994 174.659 10.2573 174.659 10.4468C174.659 10.6364 174.817 10.7943 175.006 10.7943ZM175.614 31.9873C175.614 32.3742 175.922 32.6822 176.301 32.6822C176.68 32.6822 176.996 32.3742 176.996 31.9873C176.996 31.6005 176.688 31.3004 176.301 31.3004C175.914 31.3004 175.614 31.6083 175.614 31.9873ZM175.472 32.8006C174.327 32.8006 173.395 33.7324 173.395 34.8773C173.395 36.0222 174.327 36.9539 175.472 36.9539C176.617 36.9539 177.549 36.0222 177.549 34.8773C177.549 33.7324 176.617 32.8006 175.472 32.8006ZM178.733 34.601C178.354 34.601 178.038 34.9089 178.038 35.2958C178.038 35.6827 178.346 35.9827 178.733 35.9827C179.12 35.9827 179.428 35.6748 179.428 35.2958C179.428 34.9168 179.12 34.601 178.733 34.601ZM180.415 38.549C180.036 38.5648 179.736 38.8806 179.752 39.2675C179.76 39.6465 180.083 39.9466 180.462 39.9308C180.849 39.9228 181.141 39.5991 181.134 39.2201C181.118 38.8332 180.802 38.5411 180.415 38.549ZM181.134 36.8197C180.944 36.8197 180.786 36.9777 180.786 37.1672C180.786 37.3566 180.944 37.5146 181.134 37.5146C181.323 37.5146 181.481 37.3566 181.481 37.1672C181.481 36.9777 181.323 36.8197 181.134 36.8197ZM156.277 35.9196C156.506 35.9196 156.695 35.7301 156.695 35.5011C156.695 35.2721 156.506 35.0826 156.277 35.0826C156.048 35.0826 155.858 35.2642 155.858 35.5011C155.858 35.7379 156.04 35.9196 156.277 35.9196ZM180.605 27.5498C178.694 27.5498 177.146 29.0974 177.146 31.0083C177.146 32.9191 178.694 34.4668 180.605 34.4668C182.515 34.4668 184.063 32.9191 184.063 31.0083C184.063 29.0974 182.515 27.5498 180.605 27.5498ZM184.316 27.6998C183.937 27.6998 183.621 28.0077 183.621 28.3946C183.621 28.7816 183.929 29.0895 184.316 29.0895C184.703 29.0895 185.011 28.7816 185.011 28.3946C185.011 28.0077 184.703 27.6998 184.316 27.6998ZM182.231 19.9221C182.231 19.6932 182.05 19.5036 181.821 19.5036C181.592 19.5036 181.402 19.6932 181.402 19.9221C181.402 20.1512 181.592 20.3407 181.821 20.3407C182.05 20.3407 182.231 20.1512 182.231 19.9221ZM181.197 26.6258C181.821 26.6258 182.318 26.1206 182.318 25.5046C182.318 24.8887 181.821 24.3834 181.197 24.3834C180.573 24.3834 180.076 24.8887 180.076 25.5046C180.076 26.1206 180.581 26.6258 181.197 26.6258ZM180.423 14.7107C180.233 14.7107 180.076 14.8686 180.076 15.0581C180.076 15.2476 180.233 15.4055 180.423 15.4055C180.612 15.4055 180.77 15.2476 180.77 15.0581C180.77 14.8686 180.612 14.7107 180.423 14.7107ZM179.262 26.8628C179.262 27.0523 179.412 27.2102 179.61 27.2102C179.807 27.2102 179.957 27.0523 179.957 26.8628C179.957 26.6733 179.799 26.5153 179.61 26.5153C179.42 26.5153 179.262 26.6733 179.262 26.8628ZM185.342 22.3146C185.342 21.1697 184.41 20.238 183.266 20.238C182.121 20.238 181.189 21.1697 181.189 22.3146C181.189 23.4596 182.121 24.3914 183.266 24.3914C184.41 24.3914 185.342 23.4596 185.342 22.3146ZM184.805 24.5492C184.039 24.5492 183.423 25.1731 183.423 25.931C183.423 26.689 184.039 27.3128 184.805 27.3128C185.571 27.3128 186.187 26.689 186.187 25.931C186.187 25.1731 185.571 24.5492 184.805 24.5492ZM186.582 27.3523C186.203 27.3681 185.903 27.684 185.911 28.0709C185.927 28.4498 186.242 28.75 186.629 28.7342C187.008 28.7183 187.308 28.4026 187.292 28.0155C187.285 27.6366 186.961 27.3366 186.582 27.3445M187.174 29.35C186.985 29.35 186.827 29.508 186.827 29.6975C186.827 29.887 186.985 30.0449 187.174 30.0449C187.364 30.0449 187.522 29.887 187.522 29.6975C187.522 29.508 187.364 29.35 187.174 29.35ZM187.687 19.7327C187.308 19.7483 187.008 20.0643 187.016 20.4511C187.032 20.8302 187.348 21.1302 187.735 21.1224C188.114 21.1066 188.414 20.7906 188.398 20.4038C188.382 20.0247 188.066 19.7247 187.679 19.7405M180.984 13.4474C180.984 12.9104 180.565 12.4761 180.06 12.4761C179.554 12.4761 179.136 12.9104 179.136 13.4474C179.136 13.9843 179.546 14.4265 180.06 14.4265C180.573 14.4265 180.984 13.9922 180.984 13.4474ZM178.283 12.7209C178.283 12.9104 178.441 13.0683 178.63 13.0683C178.82 13.0683 178.978 12.9104 178.978 12.7209C178.978 12.5314 178.82 12.3735 178.63 12.3735C178.441 12.3735 178.283 12.5314 178.283 12.7209ZM174.627 8.95448C174.627 8.18856 174.011 7.57266 173.245 7.57266C172.48 7.57266 171.864 8.18856 171.864 8.95448C171.864 9.72039 172.48 10.3362 173.245 10.3362C174.011 10.3362 174.627 9.71253 174.627 8.95448ZM152.044 30.7949C151.784 30.7949 151.579 31.0003 151.579 31.2609C151.579 31.5215 151.784 31.7267 152.044 31.7267C152.305 31.7267 152.51 31.5215 152.51 31.2609C152.51 31.0003 152.305 30.7949 152.044 30.7949ZM156.19 42.6154C156.695 42.6154 157.106 42.2048 157.106 41.7074C157.106 41.2099 156.695 40.7914 156.19 40.7914C155.684 40.7914 155.274 41.2021 155.274 41.7074C155.274 42.2128 155.684 42.6154 156.19 42.6154Z" fill="url(#paint0_linear_2486_233)"/>
<path d="M218.079 13.7394V15.4449C216.445 14.0868 214.337 13.2973 211.968 13.2973C206.283 13.2973 201.727 18.1138 201.727 24.3754C201.727 27.2653 202.761 29.8948 204.395 31.8214C206.243 34.0086 209.173 35.4141 212.276 35.4141C214.384 35.4141 216.366 34.7588 218.087 33.2664V34.972H223.464V13.7316H218.087L218.079 13.7394ZM217.866 27.5339C216.792 29.1052 214.937 30.1633 212.828 30.1633C209.686 30.1633 207.317 27.7076 207.317 24.3833C207.317 21.3197 209.425 18.5559 212.694 18.5559C214.85 18.5559 216.698 19.6062 217.858 21.1854V27.5339H217.866ZM246.805 30.6449C244.349 33.977 241.254 35.4141 237.338 35.4141C230.879 35.4141 226.149 30.5107 226.149 24.3754C226.149 18.2402 231.013 13.2893 237.386 13.2893C241.002 13.2893 244.231 14.9948 246.166 17.5374L242.202 21.0827C241.081 19.5983 239.407 18.5481 237.378 18.5481C234.148 18.5481 231.74 21.1302 231.74 24.3754C231.74 27.6207 234.108 30.1553 237.504 30.1553C239.786 30.1553 241.594 28.7578 242.494 27.3522L246.798 30.637L246.805 30.6449ZM263.45 34.9798C262.716 35.2404 261.041 35.4141 259.968 35.4141C256.613 35.4141 254.156 34.2771 252.736 32.3505C251.661 30.9055 251.187 29.0184 251.187 26.002V18.5559H247.697V13.7394H251.187V7.82524H256.786V13.7394H263.459V18.5559H256.786V26.6573C256.786 27.9681 257.007 28.7578 257.473 29.3263C258.033 29.9816 258.934 30.3764 260.315 30.3764C261.137 30.3764 262.211 30.2422 262.597 30.1553L263.459 34.972L263.45 34.9798ZM267.327 13.7394H272.926V34.9798H267.327V13.7394ZM298.43 13.7394L288.828 34.9798H284.951L275.349 13.7394H281.16L286.885 26.7048L292.611 13.7394H298.422H298.43ZM308.647 27.6996C309.429 28.4182 310.257 28.9946 311.158 29.4289C312.051 29.8632 313.101 30.0764 314.316 30.0764C315.122 30.0764 315.825 29.9501 316.418 29.7053C317.01 29.4605 317.491 29.1368 317.863 28.7341C318.233 28.3314 318.509 27.8733 318.684 27.3522C318.857 26.8311 318.943 26.3021 318.943 25.7494C318.943 25.3151 318.857 24.8571 318.684 24.3675C318.509 23.8779 318.233 23.4279 317.863 23.0252C317.491 22.6225 316.994 22.2909 316.393 22.0303C315.785 21.7697 315.051 21.6434 314.19 21.6434C313.44 21.6434 312.746 21.7224 312.113 21.8802C311.482 22.0382 310.874 22.2356 310.298 22.4646L307.447 20.3485L309.823 7.54887H324.526V12.9971H314.112L313.29 17.3637C313.488 17.2768 313.859 17.1979 314.396 17.1268C314.933 17.0558 315.47 17.0162 316.015 17.0162C317.34 17.0162 318.565 17.2216 319.686 17.6242C320.807 18.027 321.787 18.6113 322.608 19.3773C323.429 20.1431 324.06 21.0591 324.51 22.125C324.961 23.191 325.182 24.3911 325.182 25.7099C325.182 27.0285 324.969 28.2445 324.558 29.4289C324.139 30.6134 323.492 31.6477 322.615 32.54C321.739 33.4322 320.626 34.1508 319.283 34.6798C317.941 35.2088 316.353 35.4773 314.506 35.4773C312.43 35.4773 310.661 35.1535 309.193 34.5061C307.724 33.8586 306.437 33.0296 305.347 32.0188L308.679 27.6996H308.647ZM340.965 20.1431H351.23V31.6793C349.849 32.8795 348.231 33.8033 346.382 34.4508C344.535 35.1062 342.426 35.4299 340.059 35.4299C337.879 35.4299 335.928 35.0904 334.207 34.4113C332.494 33.7323 331.033 32.7848 329.832 31.553C328.632 30.3291 327.724 28.8683 327.1 27.1627C326.476 25.4572 326.161 23.5858 326.161 21.5328C326.161 19.4799 326.492 17.6874 327.156 15.9819C327.819 14.2763 328.766 12.7919 329.991 11.5285C331.214 10.2651 332.667 9.27024 334.341 8.55168C336.015 7.83314 337.879 7.46991 339.932 7.46991C342.356 7.46991 344.48 7.9121 346.303 8.80436C348.128 9.69658 349.635 10.9442 350.836 12.5392L346.762 16.4162C345.909 15.4055 344.969 14.5763 343.951 13.9369C342.924 13.2973 341.669 12.9813 340.176 12.9813C338.952 12.9813 337.863 13.2104 336.899 13.6605C335.945 14.1106 335.131 14.7264 334.467 15.5003C333.805 16.274 333.299 17.1742 332.951 18.2165C332.604 19.2508 332.43 20.3563 332.43 21.5328C332.43 22.812 332.628 23.9648 333.031 25.0071C333.433 26.0415 333.985 26.9338 334.704 27.6602C335.424 28.3945 336.268 28.9551 337.239 29.3578C338.21 29.7606 339.269 29.9579 340.414 29.9579C341.479 29.9579 342.451 29.8316 343.327 29.5789C344.204 29.3263 344.993 28.9236 345.68 28.3629V25.0071H340.965V20.1351V20.1431Z" fill="#9C278C"/>
</g>
</g>
<defs>
<linearGradient id="paint0_linear_2486_233" x1="146.415" y1="38.5174" x2="181.141" y2="3.79042" gradientUnits="userSpaceOnUse">
<stop stop-color="#2D3486"/>
<stop offset="0.12" stop-color="#353287"/>
<stop offset="0.13" stop-color="#353187"/>
<stop offset="0.38" stop-color="#9C278C"/>
<stop offset="0.41" stop-color="#A62785"/>
<stop offset="0.55" stop-color="#D62967"/>
<stop offset="0.62" stop-color="#E92A5C"/>
<stop offset="0.67" stop-color="#E93254"/>
<stop offset="0.76" stop-color="#EB4B40"/>
<stop offset="0.85" stop-color="#EF6F23"/>
<stop offset="1" stop-color="#F7A326"/>
</linearGradient>
</defs>
</svg>
