<svg width="243" height="87" viewBox="0 0 243 87" fill="none" xmlns="http://www.w3.org/2000/svg">
<rect width="243" height="65" rx="32.5" fill="white"/>
<path d="M121.294 86.7891C115.523 86.789 108.667 65.0002 108.667 65.0002L133.922 65.0002C133.922 65.0002 127.066 86.7891 121.294 86.7891Z" fill="white"/>
<path fill-rule="evenodd" clip-rule="evenodd" d="M49.2361 29.354C46.2986 29.354 44.4902 31.6767 44.4902 34.4677C44.4902 36.8755 45.8159 39.5426 49.2361 39.5426C52.3443 39.5426 53.2244 37.4639 53.5846 36.3026H51.9655C51.5941 36.3026 51.323 36.4574 51.0705 36.7826C50.9628 36.9065 50.4207 37.5529 49.3289 37.5529C47.1194 37.5529 47.0859 35.7219 47.0451 35.1026H53.748C53.9373 32.296 52.5151 29.3502 49.2397 29.3502M47.0451 33.4186C47.0451 33.2212 47.1936 31.3554 49.1692 31.3554C50.4727 31.3554 50.948 32.1296 51.1968 33.4186H47.0451ZM55.3263 25.9707C57.5061 25.9707 57.8403 26.3152 57.859 28.1192V39.3375C55.6678 39.3375 55.341 38.6988 55.3263 36.8639V25.9707ZM60.2504 25.9707C62.434 25.9707 62.7681 26.3152 62.7828 28.1192V39.3375C60.5919 39.3375 60.2688 38.6988 60.2504 36.8639V25.9707ZM43.5024 35.5903C43.1459 38.362 41.2928 39.5465 39.0276 39.5465C36.4355 39.5465 34.3411 37.7349 34.3411 34.5838C34.3411 31.7696 35.8822 29.3579 39.0796 29.3579C41.2483 29.3579 43.313 30.5308 43.4467 33.0315H41.653C41.0923 33.0315 40.9066 32.7412 40.7878 32.416C40.5612 31.8237 40.0413 31.367 39.061 31.367C37.4902 31.367 36.8886 32.9889 36.8886 34.4716C36.8886 36.0355 37.4716 37.5645 39.009 37.5645C39.9968 37.5645 40.5761 37.1194 40.8955 36.2135C41.1146 35.5748 41.7013 35.5981 41.7013 35.5981H43.5024V35.5903ZM23 25.9668C25.4881 25.9668 25.8074 26.6327 25.8111 28.5721V31.5141C25.8111 31.5141 28.6631 28.3475 29.7252 27.1862C30.7798 26.021 31.6414 25.9707 32.9708 25.9707H34.3448L29.3353 31.2508L34.8313 39.3414H33.4684C31.5894 39.3414 31.0843 39.0355 30.0334 37.3904C28.9825 35.7452 27.4228 33.3296 27.4228 33.3296L25.8074 35.0367V39.3414H23V25.9668ZM91.2658 39.6239H89.3421L89.0524 37.9826C87.9833 39.3414 86.6832 39.9685 84.8933 39.9685C81.0462 39.9685 78.3833 36.9103 78.3833 32.4741C78.3833 28.0379 81.1836 24.8984 85.1866 24.8984C88.3357 24.8984 90.7233 26.9036 91.0949 29.9424H89.1752C88.6478 29.9424 88.1428 29.6521 87.9123 29.1566C87.4371 28.1269 86.4605 27.5501 85.1495 27.5501C82.8358 27.5501 81.4398 29.3927 81.4398 32.4741C81.4398 35.5555 82.8398 37.4368 85.2498 37.4368C87.1548 37.4368 88.4769 36.1206 88.5511 34.1774H85.4615V33.3528C85.4615 32.5089 86.115 31.8276 86.9243 31.8276H91.2732V39.6278L91.2658 39.6239ZM77.4067 34.8354C77.4067 37.9787 75.1526 40.224 71.9928 40.224C69.0811 40.224 66.9273 38.6213 66.7641 35.5632H68.94C69.3152 35.5632 69.642 35.8187 69.768 36.1903C70.0911 37.1465 70.9232 37.7659 71.9965 37.7659C73.452 37.7659 74.477 36.589 74.477 34.9013C74.477 33.2135 73.4927 32.145 71.974 32.145C71.0085 32.145 70.3734 32.5089 69.8202 33.3838H67.2169L68.8881 25.1539H76.586C76.586 27.4301 76.2556 27.7785 74.5252 27.794H70.8861L70.1914 30.9915C70.8898 30.2637 71.6877 29.9424 72.8356 29.9424C75.5837 29.9424 77.4067 31.8896 77.4067 34.8393V34.8354Z" fill="#652D86"/>
<mask id="mask0_4122_405" style="mask-type:luminance" maskUnits="userSpaceOnUse" x="101" y="19" width="119" height="27">
<path d="M220 19.6519H101.438V45.4705H220V19.6519Z" fill="white"/>
</mask>
<g mask="url(#mask0_4122_405)">
<mask id="mask1_4122_405" style="mask-type:luminance" maskUnits="userSpaceOnUse" x="101" y="19" width="119" height="27">
<path d="M219.57 19.6519H101.438V45.4705H219.57V19.6519Z" fill="white"/>
</mask>
<g mask="url(#mask1_4122_405)">
<path d="M128.863 30.2893C128.863 30.3959 128.774 30.4847 128.668 30.4847C128.562 30.4847 128.474 30.3959 128.474 30.2893C128.474 30.1826 128.562 30.0938 128.668 30.0938C128.774 30.0938 128.863 30.1826 128.863 30.2893ZM128.209 25.67C128.102 25.67 128.014 25.7589 128.014 25.8655C128.014 25.972 128.102 26.0609 128.209 26.0609C128.315 26.0609 128.403 25.972 128.403 25.8655C128.403 25.7589 128.315 25.67 128.209 25.67ZM111.274 22.8364C111.274 22.7298 111.186 22.6409 111.08 22.6409C110.974 22.6409 110.886 22.7298 110.886 22.8364C110.886 22.9429 110.974 23.0318 111.08 23.0318C111.186 23.0318 111.274 22.9429 111.274 22.8364ZM120.979 24.1999C121.085 24.1999 121.173 24.1111 121.173 24.0045C121.173 23.8979 121.085 23.8091 120.979 23.8091C120.873 23.8091 120.784 23.8979 120.784 24.0045C120.784 24.1111 120.873 24.1999 120.979 24.1999ZM113.285 24.151C113.285 24.0445 113.197 23.9556 113.091 23.9556C112.985 23.9556 112.896 24.0445 112.896 24.151C112.896 24.2576 112.985 24.3465 113.091 24.3465C113.197 24.3465 113.285 24.2576 113.285 24.151ZM127.943 27.3756C128.049 27.3756 128.138 27.2868 128.138 27.1802C128.138 27.0736 128.049 26.9848 127.943 26.9848C127.837 26.9848 127.749 27.0736 127.749 27.1802C127.749 27.2868 127.837 27.3756 127.943 27.3756ZM124.236 28.8413C124.236 29.8851 125.075 30.729 126.114 30.729C127.152 30.729 127.992 29.8851 127.992 28.8413C127.992 27.7976 127.148 26.9537 126.114 26.9537C125.08 26.9537 124.236 27.7976 124.236 28.8413ZM125.19 26.0343C125.19 26.4651 125.535 26.8115 125.964 26.8115C126.392 26.8115 126.737 26.4606 126.737 26.0343C126.737 25.6079 126.392 25.257 125.964 25.257C125.535 25.257 125.19 25.6079 125.19 26.0343ZM125 26.8559C125 26.7493 124.912 26.6605 124.806 26.6605C124.7 26.6605 124.611 26.7493 124.611 26.8559C124.611 26.9625 124.7 27.0514 124.806 27.0514C124.912 27.0514 125 26.9625 125 26.8559ZM124.846 24.5463C124.854 24.7595 125.031 24.9283 125.248 24.9239C125.46 24.915 125.628 24.7373 125.623 24.5197C125.615 24.3065 125.438 24.1377 125.221 24.1422C125.009 24.151 124.841 24.3287 124.846 24.5463ZM124.846 23.4804C124.952 23.4804 125.04 23.3915 125.04 23.2849C125.04 23.1783 124.952 23.0895 124.846 23.0895C124.74 23.0895 124.651 23.1783 124.651 23.2849C124.651 23.3915 124.74 23.4804 124.846 23.4804ZM124.187 25.972C124.187 26.1853 124.359 26.3629 124.576 26.3629C124.793 26.3629 124.965 26.1898 124.965 25.972C124.965 25.7545 124.793 25.5857 124.576 25.5857C124.359 25.5857 124.187 25.7589 124.187 25.972ZM121.217 24.8528C121.217 25.7145 121.911 26.4074 122.764 26.4074C123.617 26.4074 124.311 25.71 124.311 24.8528C124.311 23.9956 123.617 23.2983 122.764 23.2983C121.911 23.2983 121.217 23.9956 121.217 24.8528ZM122.344 22.6143C122.45 22.6143 122.539 22.5254 122.539 22.4188C122.539 22.3122 122.45 22.2234 122.344 22.2234C122.238 22.2234 122.15 22.3122 122.15 22.4188C122.15 22.5254 122.238 22.6143 122.344 22.6143ZM121.461 23.5292C121.673 23.5203 121.841 23.3427 121.832 23.1251C121.823 22.9119 121.646 22.7431 121.434 22.752C121.222 22.7608 121.054 22.9385 121.058 23.1561C121.067 23.3693 121.244 23.5381 121.461 23.5337M119.18 22.5388C119.18 22.9696 119.525 23.316 119.954 23.316C120.382 23.316 120.727 22.9652 120.727 22.5388C120.727 22.1124 120.382 21.7615 119.954 21.7615C119.525 21.7615 119.18 22.1079 119.18 22.5388ZM119.295 20.5934C119.401 20.5934 119.49 20.5045 119.49 20.3979C119.49 20.2913 119.401 20.2025 119.295 20.2025C119.189 20.2025 119.101 20.2913 119.101 20.3979C119.101 20.5045 119.189 20.5934 119.295 20.5934ZM119.238 23.9245C119.366 23.9245 119.472 23.8179 119.472 23.6891C119.472 23.5603 119.37 23.4537 119.238 23.4537C119.105 23.4537 119.004 23.5559 119.004 23.6891C119.004 23.8224 119.11 23.9245 119.238 23.9245ZM125.385 34.9129C125.279 34.9129 125.19 35.0018 125.19 35.1084C125.19 35.2149 125.279 35.3038 125.385 35.3038C125.491 35.3038 125.579 35.2149 125.579 35.1084C125.579 35.0018 125.491 34.9129 125.385 34.9129ZM114.964 23.849C114.964 24.9239 115.831 25.7944 116.9 25.7944C117.969 25.7944 118.836 24.9239 118.836 23.849C118.836 22.7742 117.969 21.9036 116.9 21.9036C115.831 21.9036 114.964 22.7742 114.964 23.849ZM118.08 21.8503C118.296 21.8414 118.46 21.6638 118.456 21.4461C118.447 21.233 118.27 21.0642 118.058 21.0731C117.841 21.0819 117.678 21.2596 117.682 21.4772C117.687 21.6904 117.868 21.8592 118.08 21.8548M117.271 20.5978C117.377 20.5978 117.466 20.509 117.466 20.4024C117.466 20.2958 117.377 20.207 117.271 20.207C117.165 20.207 117.077 20.2958 117.077 20.4024C117.077 20.509 117.165 20.5978 117.271 20.5978ZM115.367 22.3567C115.473 22.3567 115.561 22.2678 115.561 22.1612C115.561 22.0546 115.473 21.9658 115.367 21.9658C115.261 21.9658 115.172 22.0546 115.172 22.1612C115.172 22.2678 115.261 22.3567 115.367 22.3567ZM114.903 25.217C115.009 25.217 115.097 25.1282 115.097 25.0216C115.097 24.915 115.009 24.8262 114.903 24.8262C114.796 24.8262 114.708 24.915 114.708 25.0216C114.708 25.1282 114.796 25.217 114.903 25.217ZM114.266 23.2894C114.695 23.2894 115.04 22.9429 115.04 22.5121C115.04 22.0813 114.695 21.7348 114.266 21.7348C113.838 21.7348 113.493 22.0813 113.493 22.5121C113.493 22.9429 113.838 23.2894 114.266 23.2894ZM113.131 22.6187C113.237 22.6187 113.325 22.5299 113.325 22.4233C113.325 22.3167 113.237 22.2279 113.131 22.2279C113.024 22.2279 112.936 22.3167 112.936 22.4233C112.936 22.5299 113.024 22.6187 113.131 22.6187ZM113.033 23.5292C113.245 23.5292 113.422 23.356 113.422 23.1384C113.422 22.9207 113.25 22.7475 113.033 22.7475C112.817 22.7475 112.644 22.9207 112.644 23.1384C112.644 23.356 112.817 23.5292 113.033 23.5292ZM115.19 26.1898C115.415 26.1898 115.596 26.0076 115.596 25.7811C115.596 25.5546 115.415 25.3725 115.19 25.3725C114.964 25.3725 114.783 25.5546 114.783 25.7811C114.783 26.0076 114.964 26.1898 115.19 26.1898ZM114.721 23.9156C114.721 23.6891 114.54 23.507 114.315 23.507C114.089 23.507 113.908 23.6891 113.908 23.9156C113.908 24.1422 114.089 24.3243 114.315 24.3243C114.54 24.3243 114.721 24.1422 114.721 23.9156ZM115.641 26.283C115.641 26.4562 115.778 26.5939 115.95 26.5939C116.122 26.5939 116.259 26.4562 116.259 26.283C116.259 26.1097 116.122 25.972 115.95 25.972C115.778 25.972 115.641 26.1097 115.641 26.283ZM111.827 22.4055C112.256 22.4055 112.6 22.0546 112.6 21.6282C112.6 21.2019 112.251 20.851 111.827 20.851C111.403 20.851 111.053 21.1974 111.053 21.6282C111.053 22.0591 111.403 22.4055 111.827 22.4055ZM110.757 20.8865C110.97 20.8776 111.137 20.7 111.133 20.4823C111.124 20.2691 110.947 20.1004 110.731 20.1092C110.519 20.1181 110.351 20.2958 110.36 20.5134C110.369 20.7266 110.545 20.8954 110.762 20.891M110.134 20.0515C110.24 20.0515 110.329 19.9627 110.329 19.8561C110.329 19.7495 110.24 19.6606 110.134 19.6606C110.028 19.6606 109.94 19.7495 109.94 19.8561C109.94 19.9627 110.028 20.0515 110.134 20.0515ZM109.582 23.8535C110.223 23.8535 110.744 23.3294 110.744 22.6853C110.744 22.0413 110.223 21.5172 109.582 21.5172C108.941 21.5172 108.42 22.0413 108.42 22.6853C108.42 23.3294 108.941 23.8535 109.582 23.8535ZM108.733 21.2774C108.84 21.2774 108.928 21.1885 108.928 21.0819C108.928 20.9753 108.84 20.8865 108.733 20.8865C108.627 20.8865 108.539 20.9753 108.539 21.0819C108.539 21.1885 108.627 21.2774 108.733 21.2774ZM108.062 22.8053C108.168 22.8053 108.256 22.7164 108.256 22.6098C108.256 22.5032 108.168 22.4144 108.062 22.4144C107.956 22.4144 107.867 22.5032 107.867 22.6098C107.867 22.7164 107.956 22.8053 108.062 22.8053ZM105.092 24.5819C105.092 25.63 105.941 26.4829 106.983 26.4829C108.026 26.4829 108.875 25.63 108.875 24.5819C108.875 23.5337 108.026 22.6809 106.983 22.6809C105.941 22.6809 105.092 23.5337 105.092 24.5819ZM105.326 22.9119C105.538 22.9119 105.711 22.7386 105.711 22.521C105.711 22.3034 105.538 22.1301 105.326 22.1301C105.114 22.1301 104.937 22.3034 104.937 22.521C104.937 22.7386 105.11 22.9119 105.326 22.9119ZM104.747 26.0565C104.96 26.0565 105.136 25.8832 105.136 25.6656C105.136 25.448 104.964 25.2748 104.747 25.2748C104.531 25.2748 104.359 25.448 104.359 25.6656C104.359 25.8832 104.531 26.0565 104.747 26.0565ZM102.732 26.1808C102.732 26.6117 103.077 26.9581 103.506 26.9581C103.934 26.9581 104.279 26.6117 104.279 26.1808C104.279 25.75 103.934 25.4036 103.506 25.4036C103.077 25.4036 102.732 25.75 102.732 26.1808ZM115.561 43.8493C115.221 43.8493 114.942 44.1291 114.942 44.4711C114.942 44.8131 115.221 45.0929 115.561 45.0929C115.901 45.0929 116.18 44.8175 116.18 44.4711C116.18 44.1247 115.901 43.8493 115.561 43.8493ZM102.971 24.8484C103.183 24.8484 103.36 24.6752 103.36 24.4575C103.36 24.2399 103.187 24.0667 102.971 24.0667C102.754 24.0667 102.582 24.2399 102.582 24.4575C102.582 24.6752 102.754 24.8484 102.971 24.8484ZM103.086 23.5115C103.192 23.5115 103.28 23.4226 103.28 23.316C103.28 23.2094 103.192 23.1206 103.086 23.1206C102.98 23.1206 102.891 23.2094 102.891 23.316C102.891 23.4226 102.98 23.5115 103.086 23.5115ZM102.313 27.6421C102.436 27.6421 102.533 27.5399 102.533 27.4201C102.533 27.3001 102.432 27.1979 102.313 27.1979C102.193 27.1979 102.092 27.3001 102.092 27.4201C102.092 27.5399 102.193 27.6421 102.313 27.6421ZM102.211 30.76C102.211 30.5469 102.039 30.3692 101.822 30.3692C101.605 30.3692 101.433 30.5424 101.433 30.76C101.433 30.9777 101.605 31.1509 101.822 31.1509C102.039 31.1509 102.211 30.9777 102.211 30.76ZM102.003 36.0544C101.791 36.0544 101.614 36.2276 101.614 36.4452C101.614 36.6629 101.787 36.8361 102.003 36.8361C102.22 36.8361 102.392 36.6629 102.392 36.4452C102.392 36.2276 102.22 36.0544 102.003 36.0544ZM103.682 36.5563C103.254 36.5563 102.909 36.9027 102.909 37.3335C102.909 37.7644 103.258 38.1109 103.682 38.1109C104.107 38.1109 104.456 37.7644 104.456 37.3335C104.456 36.9027 104.107 36.5563 103.682 36.5563ZM103.488 39.3367C103.382 39.3367 103.294 39.4255 103.294 39.5321C103.294 39.6387 103.382 39.7275 103.488 39.7275C103.594 39.7275 103.682 39.6387 103.682 39.5321C103.682 39.4255 103.594 39.3367 103.488 39.3367ZM105.322 37.5423C104.893 37.5423 104.549 37.8887 104.549 38.3196C104.549 38.7504 104.893 39.0969 105.322 39.0969C105.751 39.0969 106.095 38.746 106.095 38.3196C106.095 37.8932 105.751 37.5423 105.322 37.5423ZM105.565 39.4389C105.353 39.4389 105.176 39.6121 105.176 39.8297C105.176 40.0473 105.348 40.2161 105.565 40.2161C105.782 40.2161 105.954 40.0429 105.954 39.8297C105.954 39.6165 105.782 39.4389 105.565 39.4389ZM105.605 36.6052C105.605 37.187 106.073 37.6578 106.648 37.6578C107.222 37.6578 107.695 37.187 107.695 36.6052C107.695 36.0233 107.227 35.5525 106.648 35.5525C106.069 35.5525 105.605 36.0233 105.605 36.6052ZM107.019 26.887C107.019 26.7805 106.93 26.6916 106.824 26.6916C106.718 26.6916 106.63 26.7805 106.63 26.887C106.63 26.9936 106.718 27.0825 106.824 27.0825C106.93 27.0825 107.019 26.9936 107.019 26.887ZM112.185 25.4657C112.185 25.5723 112.273 25.6612 112.379 25.6612C112.485 25.6612 112.574 25.5723 112.574 25.4657C112.574 25.3592 112.485 25.2703 112.379 25.2703C112.273 25.2703 112.185 25.3592 112.185 25.4657ZM113.692 23.7557C113.692 23.6492 113.603 23.5603 113.497 23.5603C113.391 23.5603 113.303 23.6492 113.303 23.7557C113.303 23.8623 113.391 23.9512 113.497 23.9512C113.603 23.9512 113.692 23.8623 113.692 23.7557ZM113.895 26.5139C113.895 26.6205 113.983 26.7094 114.089 26.7094C114.195 26.7094 114.284 26.6205 114.284 26.5139C114.284 26.4074 114.195 26.3185 114.089 26.3185C113.983 26.3185 113.895 26.4074 113.895 26.5139ZM106.586 35.3482C106.727 35.3482 106.847 35.2327 106.847 35.0861C106.847 34.9396 106.732 34.824 106.586 34.824C106.44 34.824 106.325 34.9396 106.325 35.0861C106.325 35.2327 106.44 35.3482 106.586 35.3482ZM106.453 27.2912C106.453 26.6472 105.932 26.1231 105.291 26.1231C104.65 26.1231 104.129 26.6472 104.129 27.2912C104.129 27.9352 104.65 28.4593 105.291 28.4593C105.932 28.4593 106.453 27.9352 106.453 27.2912ZM101.888 32.0437C101.888 32.4745 102.233 32.8209 102.662 32.8209C103.09 32.8209 103.435 32.4745 103.435 32.0437C103.435 31.6129 103.09 31.2664 102.662 31.2664C102.233 31.2664 101.888 31.6129 101.888 32.0437ZM103.806 31.9593C103.806 32.1769 103.979 32.3501 104.195 32.3501C104.412 32.3501 104.584 32.1769 104.584 31.9593C104.584 31.7416 104.412 31.5729 104.195 31.5729C103.979 31.5729 103.806 31.746 103.806 31.9593ZM105.795 28.8457C105.795 28.7392 105.706 28.6503 105.6 28.6503C105.494 28.6503 105.406 28.7392 105.406 28.8457C105.406 28.9523 105.494 29.0412 105.6 29.0412C105.706 29.0412 105.795 28.9523 105.795 28.8457ZM105.083 32.128C105.295 32.128 105.472 31.9549 105.472 31.7372C105.472 31.5196 105.3 31.3463 105.083 31.3463C104.867 31.3463 104.694 31.5196 104.694 31.7372C104.694 31.9549 104.867 32.128 105.083 32.128ZM105.428 32.59C105.534 32.59 105.622 32.5012 105.622 32.3946C105.622 32.2879 105.534 32.1992 105.428 32.1992C105.322 32.1992 105.234 32.2879 105.234 32.3946C105.234 32.5012 105.322 32.59 105.428 32.59ZM104.61 36.8183C104.61 37.0315 104.783 37.2047 104.999 37.2047C105.216 37.2047 105.388 37.0315 105.388 36.8183C105.388 36.6052 105.216 36.4275 104.999 36.4275C104.783 36.4275 104.61 36.6007 104.61 36.8183ZM104.332 36.2942C105.384 36.2942 106.241 35.437 106.241 34.3755C106.241 33.3139 105.388 32.4567 104.332 32.4567C103.276 32.4567 102.423 33.3139 102.423 34.3755C102.423 35.437 103.276 36.2942 104.332 36.2942ZM103.983 27.6865C103.983 27.4733 103.811 27.2957 103.594 27.2957C103.378 27.2957 103.21 27.4689 103.21 27.6865C103.21 27.9042 103.382 28.0774 103.594 28.0774C103.806 28.0774 103.983 27.9042 103.983 27.6865ZM105.494 29.9073C105.494 29.05 104.8 28.3528 103.948 28.3528C103.095 28.3528 102.401 29.05 102.401 29.9073C102.401 30.7645 103.095 31.4663 103.948 31.4663C104.8 31.4663 105.494 30.7689 105.494 29.9073ZM109.949 39.5321C109.949 38.4928 109.1 37.6489 108.057 37.6489C107.014 37.6489 106.166 38.4928 106.166 39.5321C106.166 40.5715 107.014 41.4153 108.057 41.4153C109.1 41.4153 109.949 40.5715 109.949 39.5321ZM108.327 42.1749C108.327 41.9572 108.155 41.784 107.938 41.784C107.722 41.784 107.549 41.9572 107.549 42.1749C107.549 42.3924 107.722 42.5657 107.938 42.5657C108.155 42.5657 108.327 42.3924 108.327 42.1749ZM108.552 43.3252C108.446 43.3252 108.358 43.414 108.358 43.5206C108.358 43.6272 108.446 43.7161 108.552 43.7161C108.658 43.7161 108.747 43.6272 108.747 43.5206C108.747 43.414 108.658 43.3252 108.552 43.3252ZM109.246 41.3443C109.034 41.3443 108.857 41.5175 108.857 41.7351C108.857 41.9527 109.03 42.126 109.246 42.126C109.463 42.126 109.635 41.9527 109.635 41.7351C109.635 41.5175 109.463 41.3443 109.246 41.3443ZM112.092 41.14C112.092 40.4959 111.571 39.9718 110.93 39.9718C110.289 39.9718 109.768 40.4959 109.768 41.14C109.768 41.784 110.289 42.3081 110.93 42.3081C111.571 42.3081 112.092 41.784 112.092 41.14ZM111.027 44.1913C110.921 44.1913 110.833 44.2801 110.833 44.3867C110.833 44.4933 110.921 44.5821 111.027 44.5821C111.133 44.5821 111.221 44.4933 111.221 44.3867C111.221 44.2801 111.133 44.1913 111.027 44.1913ZM111.562 42.3481C111.35 42.3481 111.173 42.5213 111.173 42.7389C111.173 42.9566 111.345 43.1298 111.562 43.1298C111.778 43.1298 111.951 42.9566 111.951 42.7389C111.951 42.5213 111.778 42.3481 111.562 42.3481ZM112.441 43.7249C112.229 43.7249 112.052 43.8981 112.052 44.1158C112.052 44.3334 112.225 44.5066 112.441 44.5066C112.658 44.5066 112.83 44.3334 112.83 44.1158C112.83 43.8981 112.658 43.7249 112.441 43.7249ZM111.584 23.0806C110.943 23.0806 110.422 23.6047 110.422 24.2488C110.422 24.8928 110.943 25.4169 111.584 25.4169C112.225 25.4169 112.746 24.8928 112.746 24.2488C112.746 23.6047 112.225 23.0806 111.584 23.0806ZM113.312 41.4375C112.671 41.4375 112.149 41.9616 112.149 42.6057C112.149 43.2497 112.671 43.7738 113.312 43.7738C113.952 43.7738 114.474 43.2497 114.474 42.6057C114.474 41.9616 113.952 41.4375 113.312 41.4375ZM114.2 44.1203C114.094 44.1203 114.005 44.209 114.005 44.3157C114.005 44.4223 114.094 44.5111 114.2 44.5111C114.306 44.5111 114.394 44.4223 114.394 44.3157C114.394 44.209 114.306 44.1203 114.2 44.1203ZM114.743 43.7294C114.637 43.7294 114.549 43.8182 114.549 43.9248C114.549 44.0314 114.637 44.1203 114.743 44.1203C114.85 44.1203 114.938 44.0314 114.938 43.9248C114.938 43.8182 114.85 43.7294 114.743 43.7294ZM114.982 42.8011C114.77 42.8011 114.593 42.9743 114.593 43.192C114.593 43.4096 114.766 43.5828 114.982 43.5828C115.199 43.5828 115.367 43.4096 115.367 43.192C115.367 42.9743 115.194 42.8011 114.982 42.8011ZM115.079 41.8595C114.867 41.8595 114.69 42.0327 114.69 42.2503C114.69 42.468 114.863 42.6412 115.079 42.6412C115.296 42.6412 115.464 42.468 115.464 42.2503C115.464 42.0327 115.291 41.8595 115.079 41.8595ZM115.592 26.9803C115.592 26.6383 115.314 26.3585 114.973 26.3585C114.633 26.3585 114.355 26.6383 114.355 26.9803C114.355 27.3223 114.633 27.6021 114.973 27.6021C115.314 27.6021 115.592 27.3223 115.592 26.9803ZM114.584 25.3103C114.584 24.804 114.178 24.3953 113.67 24.3953C113.161 24.3953 112.759 24.804 112.759 25.3103C112.759 25.8166 113.166 26.2297 113.67 26.2297C114.173 26.2297 114.584 25.8211 114.584 25.3103ZM109.648 24.231C109.308 24.231 109.034 24.5064 109.034 24.8484C109.034 25.1904 109.308 25.4657 109.648 25.4657C109.989 25.4657 110.263 25.1904 110.263 24.8484C110.263 24.5064 109.989 24.231 109.648 24.231ZM117.536 40.8912C117.536 41.02 117.642 41.1266 117.771 41.1266C117.899 41.1266 118.005 41.0245 118.005 40.8912C118.005 40.758 117.899 40.6558 117.771 40.6558C117.642 40.6558 117.536 40.758 117.536 40.8912ZM117.178 41.2243C116.321 41.2243 115.632 41.9217 115.632 42.7789C115.632 43.6361 116.326 44.3334 117.178 44.3334C118.031 44.3334 118.725 43.6361 118.725 42.7789C118.725 41.9217 118.031 41.2243 117.178 41.2243ZM119.339 42.2726C119.123 42.2726 118.951 42.4458 118.951 42.6634C118.951 42.881 119.123 43.0543 119.339 43.0543C119.556 43.0543 119.728 42.881 119.728 42.6634C119.728 42.4458 119.556 42.2726 119.339 42.2726ZM120.678 42.4103C120.25 42.4103 119.905 42.7567 119.905 43.1875C119.905 43.6183 120.25 43.9647 120.678 43.9647C121.107 43.9647 121.452 43.6183 121.452 43.1875C121.452 42.7567 121.107 42.4103 120.678 42.4103ZM120.214 44.551C120.108 44.551 120.02 44.6399 120.02 44.7465C120.02 44.8531 120.108 44.9419 120.214 44.9419C120.32 44.9419 120.409 44.8531 120.409 44.7465C120.409 44.6399 120.32 44.551 120.214 44.551ZM116.476 45.0929C116.37 45.0929 116.281 45.1818 116.281 45.2884C116.281 45.395 116.37 45.4838 116.476 45.4838C116.582 45.4838 116.67 45.395 116.67 45.2884C116.67 45.1818 116.582 45.0929 116.476 45.0929ZM121.173 40.7047C120.961 40.7047 120.784 40.8779 120.784 41.0955C120.784 41.3132 120.957 41.4864 121.173 41.4864C121.39 41.4864 121.562 41.3132 121.562 41.0955C121.562 40.8779 121.39 40.7047 121.173 40.7047ZM120.594 42.0638C120.7 42.0638 120.789 41.975 120.789 41.8684C120.789 41.7618 120.7 41.6729 120.594 41.6729C120.488 41.6729 120.4 41.7618 120.4 41.8684C120.4 41.975 120.488 42.0638 120.594 42.0638ZM118.615 25.1815C118.615 25.2881 118.703 25.3769 118.809 25.3769C118.915 25.3769 119.004 25.2881 119.004 25.1815C119.004 25.0749 118.915 24.986 118.809 24.986C118.703 24.986 118.615 25.0749 118.615 25.1815ZM119.852 39.35C119.852 39.2434 119.764 39.1546 119.657 39.1546C119.551 39.1546 119.463 39.2434 119.463 39.35C119.463 39.4566 119.551 39.5455 119.657 39.5455C119.764 39.5455 119.852 39.4566 119.852 39.35ZM119.366 39.7009C118.725 39.7009 118.204 40.225 118.204 40.869C118.204 41.513 118.725 42.0372 119.366 42.0372C120.007 42.0372 120.528 41.513 120.528 40.869C120.528 40.225 120.007 39.7009 119.366 39.7009ZM120.944 25.6745C121.05 25.6745 121.138 25.5857 121.138 25.4791C121.138 25.3725 121.05 25.2836 120.944 25.2836C120.837 25.2836 120.749 25.3725 120.749 25.4791C120.749 25.5857 120.837 25.6745 120.944 25.6745ZM121.284 37.5956C121.284 37.8132 121.456 37.9864 121.668 37.9864C121.88 37.9864 122.057 37.8132 122.057 37.5956C122.057 37.378 121.885 37.2092 121.668 37.2092C121.452 37.2092 121.284 37.3824 121.284 37.5956ZM121.204 38.0531C120.563 38.0531 120.042 38.5772 120.042 39.2212C120.042 39.8652 120.563 40.3893 121.204 40.3893C121.845 40.3893 122.366 39.8652 122.366 39.2212C122.366 38.5772 121.845 38.0531 121.204 38.0531ZM123.029 39.0658C122.817 39.0658 122.64 39.239 122.64 39.4566C122.64 39.6743 122.813 39.843 123.029 39.843C123.246 39.843 123.418 39.6698 123.418 39.4566C123.418 39.2434 123.246 39.0658 123.029 39.0658ZM123.971 41.2866C123.758 41.2954 123.591 41.473 123.599 41.6907C123.604 41.9039 123.785 42.0727 123.997 42.0638C124.214 42.0593 124.377 41.8772 124.373 41.6641C124.364 41.4464 124.187 41.2821 123.971 41.2866ZM124.373 40.3138C124.267 40.3138 124.178 40.4027 124.178 40.5092C124.178 40.6158 124.267 40.7047 124.373 40.7047C124.479 40.7047 124.567 40.6158 124.567 40.5092C124.567 40.4027 124.479 40.3138 124.373 40.3138ZM110.461 39.8075C110.59 39.8075 110.696 39.7009 110.696 39.5721C110.696 39.4433 110.59 39.3367 110.461 39.3367C110.333 39.3367 110.227 39.4389 110.227 39.5721C110.227 39.7053 110.329 39.8075 110.461 39.8075ZM124.077 35.0995C123.007 35.0995 122.141 35.97 122.141 37.0449C122.141 38.1197 123.007 38.9903 124.077 38.9903C125.146 38.9903 126.012 38.1197 126.012 37.0449C126.012 35.97 125.146 35.0995 124.077 35.0995ZM126.154 35.1838C125.941 35.1838 125.765 35.357 125.765 35.5747C125.765 35.7924 125.937 35.9656 126.154 35.9656C126.37 35.9656 126.543 35.7924 126.543 35.5747C126.543 35.357 126.37 35.1838 126.154 35.1838ZM124.987 30.8089C124.987 30.6801 124.885 30.5735 124.757 30.5735C124.629 30.5735 124.523 30.6801 124.523 30.8089C124.523 30.9378 124.629 31.0444 124.757 31.0444C124.885 31.0444 124.987 30.9378 124.987 30.8089ZM124.408 34.5797C124.757 34.5797 125.036 34.2955 125.036 33.9491C125.036 33.6026 124.757 33.3184 124.408 33.3184C124.059 33.3184 123.781 33.6026 123.781 33.9491C123.781 34.2955 124.063 34.5797 124.408 34.5797ZM123.975 27.8775C123.869 27.8775 123.781 27.9663 123.781 28.0729C123.781 28.1795 123.869 28.2683 123.975 28.2683C124.081 28.2683 124.169 28.1795 124.169 28.0729C124.169 27.9663 124.081 27.8775 123.975 27.8775ZM123.325 34.713C123.325 34.8196 123.409 34.9085 123.52 34.9085C123.63 34.9085 123.714 34.8196 123.714 34.713C123.714 34.6064 123.626 34.5176 123.52 34.5176C123.414 34.5176 123.325 34.6064 123.325 34.713ZM126.728 32.1547C126.728 31.5107 126.207 30.9866 125.566 30.9866C124.925 30.9866 124.404 31.5107 124.404 32.1547C124.404 32.7987 124.925 33.3229 125.566 33.3229C126.207 33.3229 126.728 32.7987 126.728 32.1547ZM126.428 33.4116C125.999 33.4116 125.654 33.7626 125.654 34.1889C125.654 34.6153 125.999 34.9662 126.428 34.9662C126.856 34.9662 127.201 34.6153 127.201 34.1889C127.201 33.7626 126.856 33.4116 126.428 33.4116ZM127.422 34.9884C127.21 34.9973 127.042 35.175 127.046 35.3926C127.055 35.6057 127.232 35.7746 127.448 35.7657C127.661 35.7568 127.828 35.5792 127.82 35.3615C127.815 35.1483 127.634 34.9795 127.422 34.984M127.753 36.1121C127.647 36.1121 127.559 36.201 127.559 36.3076C127.559 36.4141 127.647 36.503 127.753 36.503C127.859 36.503 127.948 36.4141 127.948 36.3076C127.948 36.201 127.859 36.1121 127.753 36.1121ZM128.041 30.7024C127.828 30.7112 127.661 30.8889 127.665 31.1065C127.674 31.3197 127.851 31.4885 128.067 31.4841C128.279 31.4752 128.447 31.2975 128.438 31.0799C128.43 30.8666 128.253 30.6979 128.036 30.7068M124.289 27.1669C124.289 26.8648 124.055 26.6205 123.772 26.6205C123.489 26.6205 123.255 26.8648 123.255 27.1669C123.255 27.4689 123.484 27.7176 123.772 27.7176C124.059 27.7176 124.289 27.4733 124.289 27.1669ZM122.777 26.7582C122.777 26.8648 122.866 26.9537 122.972 26.9537C123.078 26.9537 123.166 26.8648 123.166 26.7582C123.166 26.6516 123.078 26.5628 122.972 26.5628C122.866 26.5628 122.777 26.6516 122.777 26.7582ZM120.731 24.6396C120.731 24.2088 120.387 23.8623 119.958 23.8623C119.529 23.8623 119.185 24.2088 119.185 24.6396C119.185 25.0704 119.529 25.4169 119.958 25.4169C120.387 25.4169 120.731 25.066 120.731 24.6396ZM108.093 36.9249C107.947 36.9249 107.832 37.0404 107.832 37.187C107.832 37.3335 107.947 37.449 108.093 37.449C108.239 37.449 108.353 37.3335 108.353 37.187C108.353 37.0404 108.239 36.9249 108.093 36.9249ZM110.413 43.5739C110.696 43.5739 110.925 43.343 110.925 43.0632C110.925 42.7833 110.696 42.5479 110.413 42.5479C110.13 42.5479 109.9 42.7789 109.9 43.0632C109.9 43.3474 110.13 43.5739 110.413 43.5739Z" fill="url(#paint0_linear_4122_405)"/>
<path d="M145.05 27.3313V28.2906C144.135 27.5267 142.955 27.0826 141.63 27.0826C138.448 27.0826 135.898 29.7919 135.898 33.3141C135.898 34.9396 136.477 36.4187 137.392 37.5024C138.426 38.7327 140.065 39.5233 141.802 39.5233C142.982 39.5233 144.091 39.1547 145.054 38.3152V39.2746H148.064V27.3269H145.054L145.05 27.3313ZM144.931 35.0907C144.33 35.9746 143.291 36.5697 142.111 36.5697C140.352 36.5697 139.027 35.1884 139.027 33.3185C139.027 31.5952 140.207 30.0406 142.036 30.0406C143.242 30.0406 144.277 30.6313 144.926 31.5196V35.0907H144.931ZM161.127 36.8406C159.752 38.7149 158.02 39.5233 155.828 39.5233C152.214 39.5233 149.566 36.7651 149.566 33.3141C149.566 29.863 152.289 27.0781 155.855 27.0781C157.879 27.0781 159.686 28.0374 160.769 29.4676L158.55 31.4619C157.923 30.6269 156.986 30.0362 155.85 30.0362C154.043 30.0362 152.695 31.4886 152.695 33.3141C152.695 35.1395 154.021 36.5652 155.921 36.5652C157.198 36.5652 158.21 35.7791 158.714 34.9885L161.123 36.8362L161.127 36.8406ZM170.442 39.279C170.031 39.4256 169.094 39.5233 168.494 39.5233C166.615 39.5233 165.241 38.8837 164.446 37.8C163.844 36.9872 163.579 35.9257 163.579 34.229V30.0406H161.626V27.3313H163.579V24.0046H166.713V27.3313H170.447V30.0406H166.713V34.5976C166.713 35.3349 166.836 35.7791 167.097 36.0989C167.41 36.4675 167.914 36.6896 168.687 36.6896C169.147 36.6896 169.748 36.6141 169.965 36.5652L170.447 39.2746L170.442 39.279ZM172.612 27.3313H175.745V39.279H172.612V27.3313ZM190.019 27.3313L184.645 39.279H182.475L177.102 27.3313H180.354L183.558 34.6243L186.762 27.3313H190.014H190.019ZM195.737 35.1839C196.175 35.5881 196.638 35.9123 197.142 36.1566C197.642 36.4009 198.23 36.5209 198.91 36.5209C199.361 36.5209 199.754 36.4498 200.086 36.3121C200.417 36.1744 200.686 35.9923 200.895 35.7658C201.102 35.5392 201.256 35.2816 201.354 34.9885C201.451 34.6953 201.499 34.3978 201.499 34.0869C201.499 33.8426 201.451 33.585 201.354 33.3096C201.256 33.0342 201.102 32.781 200.895 32.5546C200.686 32.328 200.408 32.1415 200.072 31.9949C199.732 31.8483 199.321 31.7773 198.839 31.7773C198.42 31.7773 198.031 31.8217 197.677 31.9105C197.323 31.9993 196.983 32.1104 196.661 32.2392L195.065 31.0489L196.395 23.8491H204.624V26.9137H198.795L198.335 29.3699C198.446 29.3211 198.654 29.2767 198.954 29.2367C199.255 29.1967 199.555 29.1745 199.861 29.1745C200.602 29.1745 201.288 29.29 201.915 29.5165C202.543 29.743 203.091 30.0717 203.55 30.5026C204.01 30.9333 204.363 31.4486 204.615 32.0482C204.867 32.6478 204.991 33.3229 204.991 34.0647C204.991 34.8064 204.872 35.4904 204.642 36.1566C204.407 36.8229 204.045 37.4047 203.554 37.9066C203.064 38.4085 202.441 38.8127 201.69 39.1103C200.938 39.4078 200.05 39.5589 199.016 39.5589C197.854 39.5589 196.864 39.3767 196.042 39.0126C195.22 38.6483 194.5 38.182 193.89 37.6135L195.755 35.1839H195.737ZM213.824 30.9333H219.569V37.4224C218.796 38.0976 217.89 38.6172 216.856 38.9815C215.822 39.3501 214.642 39.5322 213.317 39.5322C212.097 39.5322 211.005 39.3412 210.042 38.9592C209.083 38.5773 208.266 38.0443 207.593 37.3514C206.922 36.663 206.414 35.8413 206.064 34.8819C205.715 33.9226 205.539 32.8699 205.539 31.7151C205.539 30.5603 205.724 29.552 206.096 28.5927C206.467 27.6333 206.997 26.7983 207.682 26.0876C208.367 25.377 209.18 24.8174 210.117 24.4132C211.053 24.009 212.097 23.8047 213.246 23.8047C214.603 23.8047 215.791 24.0534 216.811 24.5553C217.833 25.0572 218.676 25.759 219.349 26.6562L217.068 28.837C216.591 28.2684 216.065 27.802 215.495 27.4423C214.92 27.0826 214.218 26.9049 213.383 26.9049C212.697 26.9049 212.088 27.0337 211.549 27.2869C211.014 27.5401 210.559 27.8865 210.187 28.3218C209.817 28.757 209.534 29.2633 209.339 29.8496C209.145 30.4314 209.047 31.0533 209.047 31.7151C209.047 32.4346 209.158 33.0831 209.384 33.6693C209.609 34.2512 209.918 34.7531 210.32 35.1617C210.723 35.5748 211.195 35.8901 211.739 36.1167C212.282 36.3432 212.875 36.4542 213.515 36.4542C214.112 36.4542 214.655 36.3832 215.146 36.241C215.636 36.0989 216.078 35.8724 216.463 35.557V33.6693H213.824V30.9289V30.9333Z" fill="#9C278C"/>
</g>
</g>
<defs>
<linearGradient id="paint0_linear_4122_405" x1="104.942" y1="41.2687" x2="124.476" y2="21.8337" gradientUnits="userSpaceOnUse">
<stop stop-color="#2D3486"/>
<stop offset="0.12" stop-color="#353287"/>
<stop offset="0.13" stop-color="#353187"/>
<stop offset="0.38" stop-color="#9C278C"/>
<stop offset="0.41" stop-color="#A62785"/>
<stop offset="0.55" stop-color="#D62967"/>
<stop offset="0.62" stop-color="#E92A5C"/>
<stop offset="0.67" stop-color="#E93254"/>
<stop offset="0.76" stop-color="#EB4B40"/>
<stop offset="0.85" stop-color="#EF6F23"/>
<stop offset="1" stop-color="#F7A326"/>
</linearGradient>
</defs>
</svg>
