<svg width="167" height="58" viewBox="0 0 167 58" fill="none" xmlns="http://www.w3.org/2000/svg">
<path d="M7.11738 47.6475H50.3543C53.5954 43.9721 55.9009 39.4613 56.9033 34.4493H0.568359C1.57076 39.4278 3.87628 43.9387 7.11738 47.6475ZM0.568359 23.0219H56.9033C55.9009 18.0433 53.5954 13.5325 50.3877 9.82361H7.08397C3.87628 13.5325 1.57076 18.0433 0.568359 23.0219Z" fill="#FFD400"/>
<path d="M6.68267 10.2913H50.7883C45.509 4.0096 37.59 0 28.7355 0C19.881 0 11.962 4.0096 6.68267 10.2913ZM50.7215 47.2131H6.7495C11.9954 53.4614 19.9144 57.471 28.7355 57.471C37.5566 57.471 45.4756 53.4614 50.7215 47.2131ZM0 28.7355C0 30.8405 0.233894 32.9122 0.668267 34.8836H56.8027C57.2371 32.9122 57.471 30.8405 57.471 28.7355C57.471 26.6304 57.2371 24.5588 56.8027 22.5874H0.668267C0.233894 24.5588 0 26.6304 0 28.7355ZM124.431 19.6471C124.431 20.616 125.2 21.3846 126.169 21.3846C127.138 21.3846 127.906 20.616 127.906 19.6471C127.906 18.6781 127.138 17.9096 126.169 17.9096C125.2 17.9096 124.431 18.6781 124.431 19.6471ZM133.486 25.3273L133.386 25.3942L133.152 24.7593C133.085 24.5588 132.885 24.3918 132.651 24.3918H131.548C131.248 24.3918 131.014 24.6256 131.014 24.9264V39.1939C131.014 39.4946 131.248 39.7285 131.548 39.7285H133.553C133.854 39.7285 134.088 39.4946 134.088 39.1939V27.6663L134.155 27.6329C134.99 27.1985 135.792 26.9312 137.429 26.9312C139.367 26.9312 139.768 27.6663 139.768 28.8357V39.1939C139.768 39.4946 140.002 39.7285 140.303 39.7285H142.308C142.608 39.7285 142.842 39.4946 142.842 39.1939V28.936C142.842 25.7951 140.971 24.1244 137.463 24.1244C136.093 24.1244 134.79 24.5254 133.486 25.3273ZM127.672 24.9264C127.672 24.6256 127.439 24.3918 127.138 24.3918H125.2C124.899 24.3918 124.665 24.6256 124.665 24.9264V39.1939C124.665 39.4946 124.899 39.7285 125.2 39.7285H127.138C127.439 39.7285 127.672 39.4946 127.672 39.1939V24.9264ZM121.023 17.8093C121.023 17.5086 120.789 17.2747 120.489 17.2747H118.551C118.25 17.2747 118.016 17.5086 118.016 17.8093V39.1939C118.016 39.4946 118.25 39.7285 118.551 39.7285H120.489C120.789 39.7285 121.023 39.4946 121.023 39.1939V17.8093ZM91.1517 30.7069C91.2853 28.7355 91.8199 26.9312 94.5598 26.9312C96.9322 26.9312 97.4 28.2009 97.4334 30.7069V30.8071H91.1182L91.1517 30.7069ZM88.0442 32.0768C88.0442 34.0482 88.0442 40.0292 94.5598 40.0292C96.5312 40.0292 97.8009 39.929 99.4716 39.3609C99.6721 39.2941 99.7723 39.0936 99.7723 38.8932V37.2893C99.7723 37.1222 99.6721 36.9552 99.5384 36.8549C99.4048 36.7547 99.2043 36.7881 99.0372 36.8215C97.567 37.1222 96.431 37.2225 94.5264 37.2225C91.8199 37.2225 91.2853 35.5184 91.1182 33.6473V33.547H99.9728C100.274 33.547 100.474 33.3131 100.474 33.0124V32.0768C100.474 28.2343 100.006 24.1244 94.5264 24.1244C88.0442 24.1244 88.0442 30.1054 88.0442 32.0768ZM105.92 30.7069C106.087 28.7355 106.589 26.9312 109.329 26.9312C111.701 26.9312 112.169 28.2009 112.202 30.7069V30.8071H105.92V30.7069ZM102.846 32.0768C102.846 34.0482 102.846 40.0292 109.362 40.0292C111.333 40.0292 112.603 39.929 114.274 39.3609C114.474 39.2941 114.574 39.0936 114.574 38.8932V37.2893C114.574 37.1222 114.474 36.9552 114.341 36.8549C114.207 36.7547 114.006 36.7881 113.839 36.8215C112.369 37.1222 111.2 37.2225 109.329 37.2225C106.622 37.2225 106.087 35.5184 105.92 33.6473V33.547H114.775C115.076 33.547 115.31 33.3131 115.31 33.0124V32.0768C115.31 28.2343 114.842 24.1244 109.362 24.1244C102.846 24.1244 102.846 30.1054 102.846 32.0768ZM148.489 30.7069C148.623 28.7355 149.157 26.9312 151.897 26.9312C154.27 26.9312 154.737 28.2009 154.771 30.7069V30.8071H148.456L148.489 30.7069ZM145.382 32.0768C145.382 34.0482 145.382 40.0292 151.897 40.0292C153.835 40.0292 155.138 39.929 156.809 39.3609C157.009 39.2941 157.11 39.0936 157.11 38.8932V37.2893C157.11 37.1222 157.009 36.9552 156.876 36.8549C156.742 36.7547 156.542 36.7881 156.375 36.8215C154.904 37.1222 153.768 37.2225 151.864 37.2225C149.157 37.2225 148.623 35.5184 148.456 33.6473V33.547H157.31C157.611 33.547 157.811 33.3131 157.811 33.0124V32.0768C157.811 28.2343 157.344 24.1244 151.864 24.1244C145.382 24.1244 145.382 30.1054 145.382 32.0768ZM78.4212 29.5708C81.4952 29.5708 82.5978 30.5064 82.5978 33.1461C82.5978 34.917 82.0966 36.7213 78.3543 36.7213H73.877V29.5708H78.4212ZM78.1873 20.2151C81.4284 20.2151 81.8627 21.7521 81.8627 23.4228C81.8627 25.5278 80.7267 26.5636 78.3878 26.5636H73.8435V20.2151H78.1873ZM71.2707 17.2079C70.97 17.2079 70.7027 17.4752 70.7027 17.7759V39.1605C70.7027 39.4612 70.9366 39.7285 71.2707 39.7285H78.2207C83.1993 39.7285 85.9392 37.3896 85.9392 33.1461C85.9392 30.8405 84.8365 28.8691 82.9654 27.8667C82.9654 27.8667 82.932 27.8333 82.8651 27.8333L82.932 27.7665C84.3687 26.7307 85.2041 25.1268 85.2041 23.4228C85.2041 21.1172 84.2685 17.2079 77.9868 17.2079H71.2707Z" fill="#231F20"/>
<path fill-rule="evenodd" clip-rule="evenodd" d="M160.718 24.0577C160.685 24.0577 160.651 24.0911 160.651 24.1245V24.5923C160.651 24.6257 160.685 24.6591 160.718 24.6591H161.587V27.6997C161.587 27.7331 161.62 27.7666 161.654 27.7666H162.155C162.188 27.7666 162.222 27.7331 162.222 27.6997V24.6591H163.091C163.124 24.6591 163.157 24.6257 163.157 24.5923V24.1245C163.157 24.0911 163.124 24.0577 163.091 24.0577H160.718ZM166.398 24.0577C166.365 24.0577 166.365 24.0577 166.365 24.0911L165.363 26.43C165.262 26.2295 164.36 24.0911 164.36 24.0911C164.36 24.0577 164.327 24.0577 164.327 24.0577H163.725C163.692 24.0577 163.659 24.0911 163.659 24.1245V27.6997C163.659 27.7331 163.692 27.7666 163.725 27.7666H164.26V27.7331C164.26 27.7331 164.26 25.6615 164.227 25.2271C164.394 25.6281 165.129 27.2654 165.129 27.2654C165.129 27.2988 165.162 27.2988 165.162 27.2988H165.53C165.563 27.2988 165.563 27.2988 165.563 27.2654C165.563 27.2654 166.265 25.5947 166.432 25.2271C166.432 25.6615 166.398 27.7331 166.398 27.7331V27.7666H166.933C166.966 27.7666 167 27.7331 167 27.6997V24.1245C167 24.0911 166.966 24.0577 166.933 24.0577H166.398Z" fill="#231F20"/>
</svg>
