<svg width="243" height="87" viewBox="0 0 243 87" fill="none" xmlns="http://www.w3.org/2000/svg">
<rect width="243" height="65" rx="32.5" fill="white"/>
<path d="M121.294 86.7891C115.523 86.789 108.667 65.0002 108.667 65.0002L133.922 65.0002C133.922 65.0002 127.066 86.7891 121.294 86.7891Z" fill="white"/>
<path d="M70.7309 45.1112H99.4692C101.623 42.6682 103.156 39.67 103.822 36.3386H66.3779C67.0442 39.6478 68.5766 42.646 70.7309 45.1112ZM66.3779 28.7432H103.822C103.156 25.4341 101.623 22.4359 99.4914 19.9707H70.7087C68.5766 22.4359 67.0442 25.4341 66.3779 28.7432Z" fill="#FFD400"/>
<path d="M70.4418 20.2817H99.7575C96.2485 16.1065 90.985 13.4414 85.0996 13.4414C79.2143 13.4414 73.9508 16.1065 70.4418 20.2817ZM99.7131 44.8226H70.4862C73.973 48.9756 79.2365 51.6407 85.0996 51.6407C90.9628 51.6407 96.2263 48.9756 99.7131 44.8226ZM66 32.541C66 33.9402 66.1555 35.3172 66.4442 36.6275H103.755C104.044 35.3172 104.199 33.9402 104.199 32.541C104.199 31.1419 104.044 29.7649 103.755 28.4546H66.4442C66.1555 29.7649 66 31.1419 66 32.541ZM148.706 26.5002C148.706 27.1443 149.217 27.6551 149.861 27.6551C150.505 27.6551 151.016 27.1443 151.016 26.5002C151.016 25.8562 150.505 25.3454 149.861 25.3454C149.217 25.3454 148.706 25.8562 148.706 26.5002ZM154.724 30.2757L154.658 30.3202L154.502 29.8982C154.458 29.7649 154.325 29.6539 154.169 29.6539H153.436C153.237 29.6539 153.081 29.8094 153.081 30.0092V39.4924C153.081 39.6923 153.237 39.8478 153.436 39.8478H154.769C154.969 39.8478 155.124 39.6923 155.124 39.4924V31.8304L155.169 31.8082C155.724 31.5194 156.257 31.3418 157.345 31.3418C158.633 31.3418 158.9 31.8304 158.9 32.6077V39.4924C158.9 39.6923 159.055 39.8478 159.255 39.8478H160.588C160.788 39.8478 160.943 39.6923 160.943 39.4924V32.6743C160.943 30.5867 159.699 29.4762 157.367 29.4762C156.457 29.4762 155.591 29.7427 154.724 30.2757M150.86 30.0092C150.86 29.8094 150.705 29.6539 150.505 29.6539H149.217C149.017 29.6539 148.861 29.8094 148.861 30.0092V39.4924C148.861 39.6923 149.017 39.8478 149.217 39.8478H150.505C150.705 39.8478 150.86 39.6923 150.86 39.4924V30.0092ZM146.441 25.2787C146.441 25.0789 146.285 24.9234 146.085 24.9234H144.797C144.597 24.9234 144.442 25.0789 144.442 25.2787V39.4924C144.442 39.6923 144.597 39.8478 144.797 39.8478H146.085C146.285 39.8478 146.441 39.6923 146.441 39.4924V25.2787ZM126.586 33.8514C126.675 32.541 127.03 31.3418 128.851 31.3418C130.428 31.3418 130.739 32.1857 130.761 33.8514V33.918H126.564L126.586 33.8514V33.8514ZM124.52 34.7619C124.52 36.0723 124.52 40.0476 128.851 40.0476C130.161 40.0476 131.005 39.981 132.116 39.6035C132.249 39.5591 132.316 39.4258 132.316 39.2925V38.2265C132.316 38.1155 132.249 38.0044 132.16 37.9378C132.071 37.8712 131.938 37.8934 131.827 37.9156C130.85 38.1155 130.095 38.1821 128.829 38.1821C127.03 38.1821 126.675 37.0494 126.564 35.8057V35.7391H132.449C132.649 35.7391 132.782 35.5837 132.782 35.3838V34.7619C132.782 32.2079 132.471 29.4762 128.829 29.4762C124.52 29.4762 124.52 33.4516 124.52 34.7619ZM136.402 33.8514C136.513 32.541 136.846 31.3418 138.667 31.3418C140.244 31.3418 140.555 32.1857 140.577 33.8514V33.918H136.402V33.8514ZM134.359 34.7619C134.359 36.0723 134.359 40.0476 138.69 40.0476C140 40.0476 140.844 39.981 141.954 39.6035C142.088 39.5591 142.154 39.4258 142.154 39.2925V38.2265C142.154 38.1155 142.088 38.0044 141.999 37.9378C141.91 37.8712 141.777 37.8934 141.666 37.9156C140.688 38.1155 139.911 38.1821 138.667 38.1821C136.869 38.1821 136.513 37.0494 136.402 35.8057V35.7391H142.288C142.487 35.7391 142.643 35.5837 142.643 35.3838V34.7619C142.643 32.2079 142.332 29.4762 138.69 29.4762C134.359 29.4762 134.359 33.4516 134.359 34.7619ZM164.696 33.8514C164.785 32.541 165.14 31.3418 166.962 31.3418C168.538 31.3418 168.849 32.1857 168.872 33.8514V33.918H164.674L164.696 33.8514V33.8514ZM162.631 34.7619C162.631 36.0723 162.631 40.0476 166.962 40.0476C168.25 40.0476 169.116 39.981 170.226 39.6035C170.36 39.5591 170.426 39.4258 170.426 39.2925V38.2265C170.426 38.1155 170.36 38.0044 170.271 37.9378C170.182 37.8712 170.049 37.8934 169.938 37.9156C168.96 38.1155 168.205 38.1821 166.939 38.1821C165.14 38.1821 164.785 37.0494 164.674 35.8057V35.7391H170.559C170.759 35.7391 170.893 35.5837 170.893 35.3838V34.7619C170.893 32.2079 170.582 29.4762 166.939 29.4762C162.631 29.4762 162.631 33.4516 162.631 34.7619ZM118.124 33.0963C120.167 33.0963 120.9 33.7181 120.9 35.4726C120.9 36.6497 120.567 37.849 118.08 37.849H115.104V33.0963H118.124ZM117.969 26.8778C120.123 26.8778 120.412 27.8994 120.412 29.0098C120.412 30.409 119.657 31.0975 118.102 31.0975H115.082V26.8778H117.969ZM113.372 24.879C113.172 24.879 112.994 25.0567 112.994 25.2565V39.4702C112.994 39.6701 113.149 39.8478 113.372 39.8478H117.991C121.3 39.8478 123.121 38.2931 123.121 35.4726C123.121 33.9402 122.388 32.6299 121.145 31.9636C121.145 31.9636 121.122 31.9414 121.078 31.9414L121.122 31.897C122.077 31.2085 122.633 30.1425 122.633 29.0098C122.633 27.4774 122.011 24.879 117.836 24.879H113.372V24.879Z" fill="#231F20"/>
<path fill-rule="evenodd" clip-rule="evenodd" d="M172.825 29.4316C172.802 29.4316 172.78 29.4538 172.78 29.4761V29.787C172.78 29.8092 172.802 29.8314 172.825 29.8314H173.402V31.8524C173.402 31.8746 173.424 31.8968 173.447 31.8968H173.78C173.802 31.8968 173.824 31.8746 173.824 31.8524V29.8314H174.402C174.424 29.8314 174.446 29.8092 174.446 29.787V29.4761C174.446 29.4538 174.424 29.4316 174.402 29.4316H172.825ZM176.6 29.4316C176.578 29.4316 176.578 29.4316 176.578 29.4538L175.912 31.0085C175.845 30.8752 175.245 29.4538 175.245 29.4538C175.245 29.4316 175.223 29.4316 175.223 29.4316H174.823C174.801 29.4316 174.779 29.4538 174.779 29.4761V31.8524C174.779 31.8746 174.801 31.8968 174.823 31.8968H175.179V31.8746C175.179 31.8746 175.179 30.4977 175.157 30.209C175.268 30.4755 175.756 31.5637 175.756 31.5637C175.756 31.5859 175.778 31.5859 175.778 31.5859H176.023C176.045 31.5859 176.045 31.5859 176.045 31.5637C176.045 31.5637 176.511 30.4532 176.622 30.209C176.622 30.4977 176.6 31.8746 176.6 31.8746V31.8968H176.956C176.978 31.8968 177 31.8746 177 31.8524V29.4761C177 29.4538 176.978 29.4316 176.956 29.4316H176.6Z" fill="#231F20"/>
</svg>
