<svg width="23" height="24" viewBox="0 0 23 24" fill="none" xmlns="http://www.w3.org/2000/svg">
<path d="M22.9701 11.9997C22.9701 18.1799 17.9601 23.1899 11.78 23.1899C8.52205 23.1899 5.58932 21.7977 3.5445 19.5757C3.00737 18.9924 2.5319 18.3516 2.12723 17.6642C1.15026 16.0026 0.589844 14.0665 0.589844 11.9997C0.589844 5.81956 5.59983 0.80957 11.78 0.80957C13.8472 0.80957 15.7833 1.36999 17.4445 2.34742C18.1319 2.75163 18.7722 3.2271 19.3555 3.76468C21.5775 5.80859 22.9701 8.74178 22.9701 11.9997Z" fill="#F0CD00"/>
<path d="M22.971 11.9998C22.971 18.0406 18.1848 22.9634 12.1974 23.1821C6.21001 22.9634 1.42383 18.0406 1.42383 11.9998C1.42383 5.95891 6.21001 1.03616 12.1974 0.817383C18.1848 1.03616 22.971 5.95891 22.971 11.9998Z" fill="#FFDE50"/>
<path d="M19.3552 3.76443L3.54422 19.5754C3.00709 18.9922 2.53163 18.3514 2.12695 17.664L17.4442 2.34717C18.1316 2.75138 18.7719 3.22685 19.3552 3.76443Z" fill="#FFEA94"/>
<path d="M22.1984 7.90881L7.68863 22.4185C6.66142 22.0148 5.7082 21.4635 4.85547 20.7907L20.571 5.0752C21.2438 5.92793 21.7951 6.88115 22.1984 7.90881Z" fill="#FFEA94"/>
<path d="M20.4748 11.9996C20.4748 16.8018 16.5816 20.695 11.7794 20.695C10.1068 20.695 8.54477 20.2228 7.21886 19.4043C6.64108 19.048 6.10852 18.6256 5.63077 18.1478C5.27954 17.797 4.95799 17.4157 4.6707 17.0087C4.27516 16.4483 3.94403 15.839 3.68871 15.1918C3.31053 14.2349 3.09769 13.1945 3.0849 12.1065C3.08398 12.0709 3.08398 12.0352 3.08398 11.9996C3.08398 7.19746 6.97678 3.3042 11.7794 3.3042C11.815 3.3042 11.8511 3.3042 11.8867 3.30511C12.9747 3.3179 14.0147 3.5312 14.9716 3.90892C15.6188 4.1647 16.2281 4.49538 16.7885 4.89092C17.1954 5.17866 17.5764 5.49975 17.9276 5.85098C18.4053 6.32828 18.8278 6.86129 19.1841 7.43907C20.0026 8.76499 20.4748 10.327 20.4748 11.9996Z" fill="#FAA300"/>
<path d="M17.9276 5.85098L5.63077 18.1478C5.27954 17.797 4.95799 17.4157 4.6707 17.0087C4.27516 16.4483 3.94403 15.839 3.68871 15.1918C3.31053 14.2349 3.09769 13.1945 3.0849 12.1065C3.08398 12.0709 3.08398 12.0352 3.08398 11.9996C3.08398 7.19746 6.97678 3.3042 11.7794 3.3042C11.815 3.3042 11.8511 3.3042 11.8867 3.30511C12.9747 3.3179 14.0147 3.5312 14.9716 3.90892C15.6188 4.1647 16.2281 4.49538 16.7885 4.89092C17.1954 5.17866 17.5764 5.49975 17.9276 5.85098Z" fill="#FFBD00"/>
<path d="M20.4755 11.9996C20.4755 16.8018 16.5822 20.695 11.7801 20.695C11.6152 20.695 11.4517 20.6905 11.2891 20.6813C15.8629 20.4269 19.493 16.6369 19.493 11.9996C19.493 7.36234 15.8629 3.57231 11.2891 3.3179C11.4517 3.30877 11.6152 3.3042 11.7801 3.3042C16.5822 3.3042 20.4755 7.19746 20.4755 11.9996Z" fill="#F68E00"/>
<path d="M5.91348 8.57281H15.3626C15.8671 8.57281 16.2761 8.16385 16.2761 7.65933C16.2761 7.15482 15.8671 6.74585 15.3626 6.74585H5.91348C5.40897 6.74585 5 7.15482 5 7.65933C5 8.16385 5.40897 8.57281 5.91348 8.57281Z" fill="#F68E00"/>
<path d="M15.3626 9.94336H5.91348C5.40897 9.94336 5 10.3523 5 10.8568C5 11.3614 5.40897 11.7703 5.91348 11.7703H9.72452V18.3865C9.72452 18.891 10.1335 19.3 10.638 19.3C11.1425 19.3 11.5515 18.891 11.5515 18.3865V11.7703H15.3626C15.8671 11.7703 16.2761 11.3614 16.2761 10.8568C16.2761 10.3523 15.8671 9.94336 15.3626 9.94336Z" fill="#F68E00"/>
<path d="M7.05411 8.57306H16.5032C17.0077 8.57306 17.4167 8.16409 17.4167 7.65957C17.4167 7.15506 17.0077 6.74609 16.5032 6.74609H7.05411C6.54959 6.74609 6.14062 7.15506 6.14062 7.65957C6.14062 8.16409 6.54959 8.57306 7.05411 8.57306Z" fill="#FFEA94"/>
<path d="M16.5032 9.9436H7.05411C6.54959 9.9436 6.14062 10.3526 6.14062 10.8571C6.14062 11.3616 6.54959 11.7706 7.05411 11.7706H10.8651V18.3868C10.8651 18.8913 11.2741 19.3003 11.7786 19.3003C12.2831 19.3003 12.6921 18.8913 12.6921 18.3868V11.7706H16.5032C17.0077 11.7706 17.4167 11.3616 17.4167 10.8571C17.4167 10.3526 17.0077 9.9436 16.5032 9.9436Z" fill="#FFEA94"/>
</svg>
