<svg width="31" height="30" viewBox="0 0 31 30" fill="none" xmlns="http://www.w3.org/2000/svg">
<path d="M15.8254 20.6699L15.8264 20.6698L15.8513 20.6691L15.8513 20.6692L15.8537 20.669C16.2443 20.6515 16.6329 20.6043 17.0164 20.5278L17.0166 20.5278C20.005 19.9261 21.8483 17.5696 22.8625 15.7235C23.8468 13.9322 24.5552 11.8461 25.0312 9.35034C25.4217 7.3038 25.3887 5.22548 25.357 3.23289L25.357 3.23089V3.23086L25.3568 3.21959C25.3483 2.67765 25.3396 2.11895 25.3396 1.57244C25.3396 1.38104 25.2639 1.19736 25.1289 1.06182C24.9939 0.92627 24.8107 0.85 24.6196 0.85C24.4284 0.85 24.2452 0.92627 24.1102 1.06182C23.9752 1.19736 23.8995 1.38104 23.8995 1.57244C23.8995 2.13481 23.9085 2.7041 23.9174 3.25386C23.948 5.19438 23.9786 7.18233 23.6172 9.07877L23.6172 9.0788C23.1694 11.4314 22.5094 13.3752 21.6024 15.0259C20.7185 16.634 19.1618 18.6234 16.7346 19.1109C16.4237 19.1731 16.1085 19.2112 15.7917 19.2251C15.6012 19.2298 15.4204 19.3101 15.2888 19.4482C15.1568 19.5867 15.0852 19.7721 15.0894 19.9635C15.0937 20.1549 15.1734 20.3369 15.3114 20.4694C15.4494 20.6019 15.6342 20.6741 15.8254 20.6699Z" fill="white" stroke="white" stroke-width="0.3"/>
<path d="M20.7515 25.6173L20.9014 25.6172V25.6007C21.0092 25.5777 21.111 25.53 21.1985 25.4605C21.3257 25.3594 21.415 25.2183 21.4523 25.0601C21.4895 24.9018 21.4724 24.7356 21.4038 24.5882C21.3352 24.4409 21.2189 24.321 21.0738 24.2481C18.3054 22.8575 18.453 19.9692 18.4807 19.6302C18.5012 19.4407 18.4462 19.2506 18.3276 19.1014C18.2085 18.9517 18.0349 18.8554 17.8449 18.834C17.6548 18.8127 17.4642 18.868 17.315 18.9877C17.1663 19.107 17.0708 19.2805 17.0492 19.47L17.0467 19.4882C17.0406 19.5284 17.0381 19.5691 17.0391 19.6098C17.0026 20.3851 17.1005 21.161 17.3283 21.9028L17.3283 21.9028C17.823 23.5123 18.8973 24.7716 20.4294 25.5408C20.5293 25.5912 20.6396 25.6173 20.7515 25.6173Z" fill="white" stroke="white" stroke-width="0.3"/>
<path d="M14.6654 20.5286C15.0098 20.5973 15.3585 20.6424 15.709 20.6636V20.6669L15.8173 20.6694C15.8201 20.6695 15.823 20.6696 15.8259 20.6698L15.8259 20.6699H15.8326H15.8414L15.8556 20.6702C16.0468 20.6746 16.2317 20.6024 16.3697 20.4699C16.5077 20.3374 16.5875 20.1555 16.5918 19.9641C16.5961 19.7727 16.5245 19.5873 16.3926 19.4487C16.2611 19.3106 16.0803 19.2302 15.8897 19.2255C15.5735 19.2114 15.2588 19.1731 14.9484 19.111C12.5205 18.6235 10.9645 16.6342 10.0794 15.0264C9.17344 13.3756 8.51341 11.4317 8.06459 9.07911C7.70315 7.18268 7.73373 5.19473 7.76441 3.25422L7.76441 3.25421C7.76482 3.22812 7.76523 3.20198 7.76564 3.1758C7.7702 2.88622 7.77485 2.59114 7.77796 2.29525H24.6212C24.8124 2.29525 24.9956 2.21898 25.1306 2.08343C25.2655 1.94789 25.3412 1.76421 25.3412 1.57281C25.3412 1.38141 25.2655 1.19772 25.1306 1.06219C24.9956 0.926635 24.8124 0.850366 24.6212 0.850366H7.06222C6.87106 0.850366 6.68785 0.926635 6.55287 1.06219C6.41791 1.19772 6.34221 1.38141 6.34221 1.57281C6.34221 2.12309 6.33332 2.68577 6.32442 3.23115L6.32441 3.23125L6.3243 3.23847C6.29302 5.22945 6.2604 7.30593 6.65018 9.35068L6.65018 9.3507C7.12625 11.8465 7.83502 13.9326 8.81928 15.7242C9.83243 17.5692 11.6764 19.9268 14.6651 20.5285L14.6654 20.5286Z" fill="white" stroke="white" stroke-width="0.3"/>
<path d="M13.3103 19.1097C13.1937 19.2605 13.1414 19.4514 13.1646 19.6407C13.1975 19.9766 13.3851 22.8551 10.61 24.2485L10.61 24.2485C10.4649 24.3214 10.3486 24.4413 10.28 24.5887C10.2114 24.7361 10.1943 24.9024 10.2316 25.0607C10.2689 25.219 10.3583 25.3601 10.4856 25.4611L10.5774 25.3454L13.3103 19.1097ZM13.3103 19.1097C13.4274 18.9583 13.5996 18.8596 13.7893 18.8356C13.979 18.8116 14.1704 18.8643 14.3213 18.9819C14.4714 19.099 14.5692 19.2707 14.5936 19.4596L14.5968 19.4794M13.3103 19.1097L14.5968 19.4794M14.5968 19.4794L14.5969 19.4802C14.6031 19.5197 14.6061 19.5597 14.6059 19.5997C14.6553 20.3388 14.6945 23.8132 11.2541 25.5405C11.1544 25.5908 11.0445 25.6169 10.9329 25.617C10.9329 25.617 10.9328 25.617 10.9328 25.617L10.9328 25.467L14.5968 19.4794Z" fill="white" stroke="white" stroke-width="0.3"/>
<path d="M9.49307 25.8049V25.8052V28.428C9.49307 28.6194 9.56877 28.8031 9.70373 28.9387C9.83871 29.0742 10.0219 29.1505 10.2131 29.1505H21.473C21.5678 29.1505 21.6616 29.1317 21.7491 29.0953C21.8366 29.0588 21.916 29.0054 21.9829 28.9382L21.8765 28.8324L21.9829 28.9382C22.0497 28.8709 22.1027 28.7911 22.1387 28.7034L22 28.6464C22.0286 28.5768 22.0432 28.5022 22.0431 28.427H22.1931V28.4267L22.1931 25.8052L22.1931 25.8049C22.1922 25.3721 22.0205 24.9571 21.7154 24.651C21.4103 24.3449 20.9967 24.1726 20.5651 24.1722H20.5649L11.1208 24.1722L11.1207 24.1722C10.6891 24.1727 10.2756 24.345 9.97054 24.6511C9.66552 24.9572 9.4939 25.3721 9.49307 25.8049ZM20.753 25.8055V27.7056H10.9331L10.9327 25.8053C10.9329 25.7549 10.9529 25.7068 10.9882 25.6713C11.0236 25.6359 11.0713 25.6161 11.121 25.616H20.5648C20.6144 25.6161 20.6622 25.6359 20.6975 25.6713L20.8038 25.5654L20.6975 25.6713C20.7329 25.7068 20.7529 25.755 20.753 25.8055Z" fill="white" stroke="white" stroke-width="0.3"/>
<path d="M23.6359 12.7384L23.635 12.7384C23.4649 12.7384 23.3004 12.678 23.1705 12.568C23.0407 12.458 22.9538 12.3055 22.9252 12.1377C22.8966 11.9698 22.9281 11.7971 23.014 11.6502C23.1 11.5032 23.2351 11.3914 23.3954 11.3346C25.6011 10.5508 26.8947 9.72949 27.7147 8.85306C28.533 7.97841 28.8918 7.03647 29.2053 5.98048L29.2053 5.98046C29.4081 5.2974 29.3916 4.78255 29.2086 4.46374C29.1039 4.28519 28.9413 4.14874 28.7486 4.07688L24.6382 4.06515C24.6381 4.06515 24.6381 4.06515 24.638 4.06515L24.6378 4.06515L24.6382 3.91515C24.487 3.91515 24.3421 3.85484 24.2352 3.74748C24.1283 3.64013 24.0682 3.49453 24.0682 3.34271C24.0682 3.19088 24.1283 3.04528 24.2352 2.93793C24.3421 2.83057 24.487 2.77026 24.6382 2.77026L23.6359 12.7384ZM23.6359 12.7384C23.7165 12.7379 23.7964 12.7238 23.8722 12.6968L23.6359 12.7384ZM28.7001 9.90163C29.7734 8.77726 30.24 7.54264 30.5816 6.39331L23.8724 12.6967C26.0909 11.9085 27.6287 11.0241 28.7001 9.90163Z" fill="white" stroke="white" stroke-width="0.3"/>
<path d="M8.04995 12.7534C7.96917 12.753 7.88903 12.7391 7.8128 12.7123L7.81253 12.7122C5.57666 11.9212 4.0256 11.0343 2.94938 9.91151C1.8713 8.78674 1.40078 7.54628 1.05813 6.39326L1.05812 6.39324C0.742897 5.33191 0.780926 4.42387 1.20554 3.71035L1.20567 3.71014C1.3629 3.44695 1.57051 3.21761 1.81656 3.0354C2.0626 2.85318 2.3422 2.7217 2.63919 2.64858L2.64401 2.6474L2.64403 2.64748C2.69142 2.63746 2.73972 2.63242 2.78816 2.63243L2.78791 2.63243L2.78834 2.78243L2.78844 2.63243L7.04023 2.62026L7.04066 2.62026L7.04244 2.62026C7.23361 2.62026 7.41682 2.69653 7.5518 2.83209C7.68676 2.96762 7.76246 3.15131 7.76246 3.34271C7.76246 3.5341 7.68676 3.71779 7.5518 3.85332C7.41687 3.98882 7.23375 4.06509 7.04267 4.06515L7.04287 4.06515L7.04244 3.91515V4.06515L8.04995 12.7534ZM8.04995 12.7534L8.05012 12.7541C8.2204 12.7543 8.38516 12.694 8.51521 12.5839C8.64526 12.4738 8.73218 12.3212 8.76076 12.1531C8.78934 11.9851 8.75775 11.8122 8.67152 11.6652C8.58531 11.5182 8.45 11.4065 8.28944 11.35L8.04995 12.7534ZM2.89326 4.07688C2.9007 4.07411 2.90819 4.07143 2.91571 4.06885L2.86708 3.92695L2.8675 4.07695L2.89326 4.07688ZM2.30347 4.38849L2.43292 4.46428C2.43303 4.46409 2.43314 4.4639 2.43325 4.46371C2.43335 4.46353 2.43346 4.46334 2.43357 4.46315L2.30347 4.38849ZM2.43658 5.98046C2.43658 5.98045 2.43657 5.98045 2.43657 5.98044L2.29278 6.02316L2.43658 5.98046Z" fill="white" stroke="white" stroke-width="0.3"/>
<path d="M17.5212 10.5384C17.4376 10.6202 17.3751 10.7211 17.339 10.8324C17.3029 10.9437 17.2943 11.0621 17.3139 11.1775L17.314 11.1776L17.5872 12.7762L16.1585 12.0218L16.1581 12.0216C16.0547 11.9673 15.9398 11.939 15.823 11.9389H15.823C15.7063 11.939 15.5913 11.9673 15.4879 12.0216L15.4876 12.0218L14.0588 12.7762L14.3321 11.1776L14.3322 11.1771C14.3514 11.062 14.3426 10.9441 14.3066 10.8332C14.2705 10.7223 14.2082 10.6218 14.1249 10.5403L12.9676 9.4073L14.5664 9.1741L14.5666 9.17406C14.6825 9.15699 14.7924 9.11183 14.8869 9.04253C14.9813 8.97329 15.0574 8.88206 15.1088 8.77675C15.1088 8.77667 15.1089 8.77659 15.1089 8.77651L15.8231 7.3231L16.5391 8.77873C16.5391 8.77876 16.5392 8.77879 16.5392 8.77882C16.5906 8.88349 16.6665 8.97415 16.7605 9.04299C16.8546 9.11186 16.9639 9.15684 17.0792 9.17403L17.0798 9.17412L18.6782 9.40575L17.5212 10.5384ZM17.5212 10.5384L17.6261 10.6457M17.5212 10.5384L17.5211 10.5385L17.6261 10.6457M17.6261 10.6457C17.5598 10.7104 17.5103 10.7904 17.4817 10.8786C17.4531 10.9669 17.4462 11.0608 17.4618 11.1523L17.6261 10.6457ZM18.2079 14.7367L15.823 13.4775L13.4381 14.7367L13.4381 14.7368L18.2079 14.7367ZM18.2079 14.7367C18.3114 14.7914 18.4265 14.8199 18.5434 14.8199H18.5445C18.6495 14.82 18.7532 14.7969 18.8483 14.7525C18.9434 14.7081 19.0277 14.6433 19.0953 14.5629C19.1628 14.4824 19.212 14.3881 19.2394 14.2866C19.2669 14.1851 19.2719 14.0789 19.2542 13.9753C19.2542 13.9753 19.2542 13.9753 19.2542 13.9752L18.7986 11.3075L20.7274 9.41915C20.8237 9.32502 20.8918 9.20577 20.924 9.07493L20.7783 9.03908L18.2079 14.7367ZM12.3929 13.9752L12.3929 13.9753L12.3929 13.9752ZM12.3929 13.9752L12.8475 11.3076L10.9186 9.41915L12.3929 13.9752ZM11.3179 8.18672C11.1848 8.20606 11.0597 8.26245 10.9569 8.34942C10.8541 8.43639 10.7777 8.55045 10.7363 8.67864C10.6948 8.80683 10.6899 8.9441 10.7221 9.07493C10.7543 9.20573 10.8223 9.32495 10.9185 9.41907L20.3282 8.18673L20.3281 8.18672L17.6614 7.79778L16.4689 5.3707C16.4689 5.37069 16.4689 5.37068 16.4689 5.37067C16.4095 5.24979 16.3176 5.14792 16.2035 5.07665C16.0893 5.00537 15.9575 4.96755 15.823 4.96755C15.6885 4.96755 15.5567 5.00537 15.4426 5.07665C15.3284 5.14792 15.2365 5.24979 15.1772 5.37067C15.1772 5.37068 15.1771 5.37069 15.1771 5.3707L13.9847 7.79778L11.3179 8.18672ZM11.3179 8.18672L11.3395 8.33513L11.3178 8.18673L11.3179 8.18672Z" fill="white" stroke="white" stroke-width="0.3"/>
</svg>
