<svg width="30" height="30" viewBox="0 0 30 30" fill="none" xmlns="http://www.w3.org/2000/svg">
<g filter="url(#filter0_bi_4118_29112)">
<rect width="30" height="30" rx="15" fill="white" fill-opacity="0.36"/>
<path d="M19.6771 15.7885C20.1076 15.353 20.1076 14.647 19.6771 14.2115L11.8819 6.3266C11.4514 5.89113 10.7534 5.89113 10.3229 6.3266C9.89237 6.76207 9.89237 7.46811 10.3229 7.90358L18.1181 15.7885C18.5486 16.224 19.2466 16.224 19.6771 15.7885Z" fill="#FFFAFA"/>
<path d="M19.6771 14.2115C19.2466 13.776 18.5486 13.776 18.1181 14.2115L10.3229 22.0964C9.89237 22.5319 9.89237 23.2379 10.3229 23.6734C10.7534 24.1089 11.4514 24.1089 11.8819 23.6734L19.6771 15.7885C20.1076 15.353 20.1076 14.647 19.6771 14.2115Z" fill="#FFFAFA"/>
</g>
<defs>
<filter id="filter0_bi_4118_29112" x="-3" y="-3" width="36" height="40" filterUnits="userSpaceOnUse" color-interpolation-filters="sRGB">
<feFlood flood-opacity="0" result="BackgroundImageFix"/>
<feGaussianBlur in="BackgroundImageFix" stdDeviation="1.5"/>
<feComposite in2="SourceAlpha" operator="in" result="effect1_backgroundBlur_4118_29112"/>
<feBlend mode="normal" in="SourceGraphic" in2="effect1_backgroundBlur_4118_29112" result="shape"/>
<feColorMatrix in="SourceAlpha" type="matrix" values="0 0 0 0 0 0 0 0 0 0 0 0 0 0 0 0 0 0 127 0" result="hardAlpha"/>
<feOffset dy="7"/>
<feGaussianBlur stdDeviation="4"/>
<feComposite in2="hardAlpha" operator="arithmetic" k2="-1" k3="1"/>
<feColorMatrix type="matrix" values="0 0 0 0 0.00906331 0 0 0 0 0.381384 0 0 0 0 0.725065 0 0 0 0.25 0"/>
<feBlend mode="normal" in2="shape" result="effect2_innerShadow_4118_29112"/>
</filter>
</defs>
</svg>
