<svg width="243" height="87" viewBox="0 0 243 87" fill="none" xmlns="http://www.w3.org/2000/svg">
<rect width="243" height="65" rx="32.5" fill="white"/>
<path d="M121.294 86.7891C115.523 86.789 108.667 65.0002 108.667 65.0002L133.922 65.0002C133.922 65.0002 127.066 86.7891 121.294 86.7891Z" fill="white"/>
<path d="M106.457 42.4042H84.9707V20.8887H106.457V42.4042ZM100.823 32.9648C100.823 33.1468 100.823 33.2744 100.823 33.402C100.824 34.2202 100.58 34.4224 99.7616 34.2796C99.3225 34.2029 99.0281 33.9305 98.9058 33.5257C98.5149 32.2328 98.504 30.9254 98.944 29.647C99.0401 29.3679 99.335 29.0814 99.6103 28.955C100.231 28.67 100.823 29.0207 101.054 29.7093C101.098 29.8388 101.196 30.0488 101.275 30.0521C101.941 30.0798 102.608 30.0678 103.3 30.0678C103.3 29.4783 103.3 28.95 103.3 28.4217C103.3 27.8986 103.3 27.3758 103.3 26.8532H101.311C101.281 26.9999 101.254 27.1283 101.237 27.2105C100.869 27.0506 100.544 26.8495 100.19 26.7657C98.5728 26.3826 97.0772 27.1148 96.4348 28.6763C96.1551 29.3563 95.9952 30.1092 95.9176 30.8435C95.7753 32.1905 95.8766 33.5312 96.4742 34.7812C97.0999 36.09 98.2957 36.7224 99.7166 36.4557C100.177 36.3693 100.608 36.1196 101.041 35.9488C101.05 36.0358 101.064 36.184 101.08 36.3356H103.278V30.8422H99.8283V32.9648H100.823ZM88.1569 33.2045C87.9805 34.7362 88.8193 36.0228 90.2624 36.3638C90.8439 36.5012 91.4643 36.544 92.0633 36.5233C94.0093 36.4561 95.2578 35.0644 95.1688 33.1223C95.0901 31.4049 93.9775 30.3115 92.2573 30.32C91.7607 30.3225 91.2647 30.4628 90.7576 30.5417C90.8149 30.0623 90.8769 29.5437 90.9366 29.0443H92.8892C92.9222 29.3598 92.9515 29.6401 92.9806 29.9187H94.9064V26.8675H88.946C88.7638 28.6508 88.5824 30.4261 88.3982 32.2283C89.0257 32.3117 89.6 32.3789 90.1708 32.4683C90.4012 32.5045 90.574 32.4784 90.7664 32.3168C91.1228 32.0177 91.5509 31.9959 91.9682 32.186C92.3808 32.3738 92.5161 32.7461 92.5293 33.171C92.5509 33.864 92.198 34.3676 91.6488 34.4393C90.9378 34.532 90.484 34.2039 90.3046 33.466C90.2843 33.3822 90.2697 33.2971 90.2507 33.2045H88.1569Z" fill="#222222"/>
<path d="M66.2124 37.0906C66.309 37.0113 66.4125 36.9389 66.5013 36.8517C68.6272 34.7626 70.7631 32.6834 72.8693 30.5745C73.5115 29.9315 73.9716 29.1468 74.245 28.2676C74.6603 26.9323 74.2637 25.5559 72.3399 25.5092V20.9272C75.168 20.3298 78.8886 21.7603 79.4277 25.5901C79.7003 27.5272 79.1323 29.3207 78.2054 31.0051C77.149 32.925 75.6408 34.485 74.1731 36.0843C73.5543 36.7586 72.9068 37.024 71.9952 37.0154C70.1899 36.9983 68.3833 37.1105 66.5772 37.1686C66.4752 37.1719 66.3729 37.169 66.2708 37.169C66.2513 37.1429 66.2319 37.1168 66.2124 37.0906Z" fill="#222222"/>
<path d="M56.8531 23.5605V42.3804H52.6475V24.1523C54.0401 23.9563 55.4269 23.7612 56.8531 23.5605Z" fill="#222222"/>
<path d="M79.7212 37.5303V42.3756H65.2861V37.9685C70.0789 37.823 74.8905 37.6769 79.7212 37.5303Z" fill="#222222"/>
<path d="M45.3941 42.3803H41.7656V25.6887C42.977 25.5178 44.1718 25.3492 45.3941 25.1768V42.3803Z" fill="#222222"/>
<path d="M35.1667 26.6128V42.3815H31.9476V41.9467C31.9476 37.1318 31.9445 32.317 31.9385 27.5021C31.9374 27.1283 32.0651 27.0293 32.4089 26.9905C33.3179 26.8878 34.2223 26.745 35.1667 26.6128Z" fill="#222222"/>
<path d="M69.9023 29.6278C68.399 29.7616 66.9379 29.8916 65.4447 30.0245C65.3666 28.9455 65.4356 27.861 65.6499 26.8007C66.0487 24.8228 66.9778 23.181 68.7197 22.0745C69.5432 21.5513 70.4404 21.2102 71.423 21.0122C71.4377 21.1197 71.4588 21.2034 71.459 21.2872C71.4626 22.6679 71.467 24.0486 71.459 25.4292C71.4583 25.55 71.4063 25.7397 71.3218 25.7803C70.2172 26.3107 69.9712 27.3007 69.9061 28.385C69.8823 28.7819 69.9023 29.1813 69.9023 29.6278Z" fill="#222222"/>
<path d="M25.1172 31.7133C26.1206 31.61 27.1051 31.5086 28.1229 31.4038V42.3816H25.1172V31.7133Z" fill="#222222"/>
<path d="M30.8118 27.2227C30.8118 28.3068 30.8179 29.3494 30.7998 30.3916C30.7984 30.4715 30.6321 30.6062 30.5312 30.6179C28.8287 30.815 27.1243 30.9958 25.4205 31.1821C24.4349 31.2899 23.4498 31.4011 22.4307 31.5145V28.4022C25.1999 28.0124 27.9851 27.6205 30.8118 27.2227Z" fill="#222222"/>
<path d="M63.846 38.0122V42.3777H57.6982V38.2005C59.7248 38.1384 61.7659 38.0759 63.846 38.0122Z" fill="#222222"/>
<path d="M63.8332 26.959C61.7748 27.1846 59.7417 27.4073 57.6846 27.6328V23.4453C59.7244 23.1579 61.7632 22.8707 63.8332 22.5791V26.959Z" fill="#222222"/>
<path d="M46.1343 42.3771V38.5528C47.9089 38.4972 49.6682 38.4421 51.4548 38.3862V42.3771H46.1343Z" fill="#222222"/>
<path d="M57.6929 30.7975C59.0387 30.6835 60.3588 30.5717 61.7362 30.4551C61.7362 30.7041 61.7362 30.9062 61.7362 31.1082C61.7362 32.2429 61.7364 33.3776 61.7368 34.5123C61.7369 34.6841 61.7557 34.8493 61.5016 34.8621C60.2414 34.9254 58.9816 34.9966 57.6929 35.0666V30.7975Z" fill="#222222"/>
<path d="M40.4528 42.3821H35.8252V38.865C37.3679 38.8171 38.8947 38.7696 40.4528 38.7212V42.3821Z" fill="#222222"/>
<path d="M40.4568 25.8711V29.5327C38.9122 29.7023 37.3829 29.8702 35.8271 30.041V26.5195C37.3562 26.3054 38.8898 26.0906 40.4568 25.8711Z" fill="#222222"/>
<path d="M38.8623 32.4136V36.0963C37.8587 36.1504 36.8591 36.2043 35.8315 36.2597V32.68C36.8248 32.5927 37.8308 32.5042 38.8623 32.4136Z" fill="#222222"/>
<g clip-path="url(#clip0_4153_522)">
<rect x="202.546" y="27.9844" width="13.75" height="7.5" fill="white"/>
<path fill-rule="evenodd" clip-rule="evenodd" d="M202.694 24.729H218.877C219.017 24.729 219.13 24.8412 219.13 24.9795V35.7986C219.13 35.8659 219.104 35.9294 219.055 35.978L216.728 38.2809C216.679 38.3295 216.614 38.3556 216.547 38.3556H199.924C199.785 38.3556 199.671 38.2435 199.671 38.1051V27.7198C199.671 27.6525 199.698 27.5889 199.747 27.5403L202.512 24.8038C202.561 24.7552 202.626 24.729 202.694 24.729ZM208.209 29.4058L208.579 29.0394V28.1833H202.947V32.1536H206.694L207.174 32.6283V33.1667L206.66 33.6751H202.943V34.8976H207.657L208.575 33.9892V31.8096L207.684 30.9273H204.348V29.4058H208.209ZM211.518 29.4058H214.099L214.091 29.4095L214.446 29.761V30.6507H215.848V29.2899H215.851L214.737 28.1871V28.1796L210.861 28.1871L209.69 29.346V33.9966L210.608 34.9051H214.922L215.855 33.9817V31.2376H213.736L212.972 31.9928C212.946 32.019 212.932 32.0526 212.932 32.09V32.3218C212.932 32.3966 212.996 32.4601 213.071 32.4601H214.454V33.4172L214.189 33.6788H211.662L211.099 33.1218V29.8208L211.518 29.4058Z" fill="#E72487"/>
<path d="M178.668 32.8003H174.157C174.029 32.8003 173.927 32.9013 173.927 33.0284V35.6229C173.927 35.75 174.029 35.8509 174.157 35.8509H182.97C183.099 35.8509 183.201 35.9518 183.201 36.0789V36.7743C183.201 36.8342 183.174 36.894 183.133 36.935L181.826 38.2286C181.784 38.2734 181.724 38.2959 181.663 38.2959H171.097C170.969 38.2959 170.867 38.1949 170.867 38.0678V26.3814C170.867 26.3216 170.893 26.2618 170.935 26.2207L172.242 24.9272C172.283 24.8823 172.344 24.8599 172.404 24.8599H182.97C183.099 24.8599 183.201 24.9608 183.201 25.0879V25.7795C183.201 25.8393 183.174 25.8992 183.133 25.9403L181.822 27.2375C181.781 27.2824 181.72 27.3048 181.66 27.3048H174.157C174.029 27.3048 173.927 27.4057 173.927 27.5329V30.1273C173.927 30.2544 174.029 30.3554 174.157 30.3554H178.668C178.796 30.3554 178.898 30.4563 178.898 30.5834V32.5723C178.898 32.6994 178.796 32.8003 178.668 32.8003Z" fill="#E72487"/>
<path d="M147.833 24.8633H146.541C146.481 24.8633 146.42 24.8857 146.379 24.9306L145.071 26.2241C145.03 26.2652 145.003 26.325 145.003 26.3848V38.0675C145.003 38.1946 145.105 38.2955 145.234 38.2955H155.249C155.309 38.2955 155.37 38.2731 155.411 38.2283L156.718 36.9347C156.76 36.8937 156.786 36.8338 156.786 36.7739V36.0786C156.786 35.9515 156.684 35.8505 156.556 35.8505H148.294C148.165 35.8505 148.063 35.7497 148.063 35.6225V25.0913C148.063 24.9642 147.961 24.8633 147.833 24.8633Z" fill="#E72487"/>
<path d="M152.65 26.2241L153.957 24.9306C153.999 24.8857 154.059 24.8633 154.12 24.8633H168.426C168.554 24.8633 168.656 24.9642 168.656 25.0913V25.7867C168.656 25.8465 168.63 25.9063 168.588 25.9474L167.281 27.2409C167.24 27.2858 167.179 27.3082 167.119 27.3082H162.381C162.253 27.3082 162.151 27.4092 162.151 27.5363V38.0675C162.151 38.1946 162.049 38.2955 161.921 38.2955H159.322C159.193 38.2955 159.091 38.1946 159.091 38.0675V27.5363C159.091 27.4092 158.989 27.3082 158.861 27.3082H152.813C152.684 27.3082 152.582 27.2073 152.582 27.0802V26.3848C152.582 26.325 152.609 26.2652 152.65 26.2241Z" fill="#E72487"/>
<path d="M188.617 35.6225V25.0913C188.617 24.9642 188.515 24.8633 188.387 24.8633H187.095C187.035 24.8633 186.974 24.8857 186.933 24.9306L185.625 26.2241C185.584 26.2652 185.558 26.325 185.558 26.3848L185.539 38.2955H195.78C195.84 38.2955 195.901 38.2731 195.942 38.2283L197.249 36.9347C197.291 36.8937 197.317 36.8338 197.317 36.7739V36.0786C197.317 35.9515 197.216 35.8505 197.087 35.8505H188.844C188.716 35.8505 188.614 35.7497 188.614 35.6225H188.617Z" fill="#E72487"/>
<path fill-rule="evenodd" clip-rule="evenodd" d="M141.951 36.7777V25.0913C141.951 24.9642 141.849 24.8633 141.721 24.8633H138.121C138.06 24.8633 138 24.8857 137.958 24.9306L124.857 37.9068C124.714 38.0488 124.816 38.2955 125.02 38.2955H127.913C127.974 38.2955 128.034 38.2731 128.076 38.2283L130.414 35.9141C130.456 35.873 130.516 35.8468 130.577 35.8468H138.661C138.789 35.8468 138.891 35.9478 138.891 36.0749V38.0638C138.891 38.1909 138.993 38.2918 139.122 38.2918H140.421C140.482 38.2918 140.542 38.2693 140.584 38.2245L141.883 36.9385C141.925 36.8973 141.951 36.8375 141.951 36.7777ZM138.891 33.1739C138.891 33.301 138.789 33.4019 138.661 33.4019H133.508C133.304 33.4019 133.202 33.1552 133.346 33.0131L138.498 27.9139C138.642 27.7718 138.891 27.8727 138.891 28.0746V33.1739Z" fill="#E72487"/>
</g>
<defs>
<clipPath id="clip0_4153_522">
<rect width="95" height="13.75" fill="white" transform="translate(124.79 24.7251)"/>
</clipPath>
</defs>
</svg>
