<svg width="319" height="33" viewBox="0 0 319 33" fill="none" xmlns="http://www.w3.org/2000/svg">
<path d="M122.219 32.5H90.9673V1.20465H122.219V32.5ZM114.025 18.7699C114.025 19.0346 114.025 19.2203 114.025 19.4059C114.027 20.5959 113.671 20.8901 112.481 20.6823C111.843 20.5708 111.414 20.1746 111.236 19.5858C110.668 17.7052 110.652 15.8035 111.292 13.9441C111.432 13.538 111.861 13.1213 112.261 12.9375C113.164 12.523 114.025 13.0331 114.362 14.0346C114.425 14.223 114.567 14.5284 114.683 14.5333C115.651 14.5736 116.621 14.5561 117.629 14.5561C117.629 13.6987 117.629 12.9303 117.629 12.1618C117.629 11.401 117.629 10.6405 117.629 9.88029H114.735C114.691 10.0937 114.652 10.2805 114.628 10.4C114.093 10.1675 113.619 9.87488 113.104 9.75303C110.752 9.19579 108.577 10.2608 107.642 12.5321C107.236 13.5212 107.003 14.6164 106.89 15.6844C106.683 17.6436 106.83 19.5939 107.7 21.412C108.61 23.3157 110.349 24.2355 112.416 23.8477C113.086 23.7219 113.712 23.3587 114.343 23.1102C114.355 23.2369 114.376 23.4524 114.398 23.6729H117.596V15.6825H112.578V18.7699H114.025ZM95.6017 19.1187C95.3452 21.3465 96.5652 23.218 98.6643 23.7139C99.51 23.9137 100.413 23.976 101.284 23.9459C104.114 23.8482 105.93 21.8239 105.801 18.9991C105.686 16.501 104.068 14.9106 101.566 14.923C100.844 14.9265 100.122 15.1307 99.3846 15.2454C99.4679 14.5481 99.5581 13.7938 99.6449 13.0674H102.485C102.533 13.5263 102.576 13.9339 102.618 14.3393H105.419V9.90117H96.7495C96.4845 12.495 96.2207 15.0772 95.9528 17.6986C96.8654 17.8199 97.7008 17.9177 98.531 18.0478C98.8662 18.1003 99.1175 18.0624 99.3974 17.8274C99.9158 17.3923 100.538 17.3607 101.145 17.6371C101.746 17.9103 101.942 18.4519 101.962 19.0699C101.993 20.0779 101.48 20.8104 100.681 20.9146C99.6467 21.0495 98.9866 20.5722 98.7257 19.4989C98.6961 19.3771 98.6749 19.2533 98.6473 19.1187H95.6017Z" fill="#222222"/>
<path d="M63.6821 24.7713C63.8227 24.656 63.9731 24.5507 64.1023 24.4237C67.1946 21.3851 70.3013 18.3608 73.3648 15.2934C74.299 14.358 74.9682 13.2167 75.3659 11.9379C75.97 9.99555 75.3931 7.99348 72.5949 7.92563V1.26089C76.7085 0.392012 82.1203 2.47271 82.9043 8.04335C83.3009 10.8608 82.4746 13.4696 81.1265 15.9197C79.59 18.7122 77.3961 20.9813 75.2613 23.3076C74.3612 24.2884 73.4195 24.6744 72.0935 24.6619C69.4675 24.637 66.8398 24.8003 64.2127 24.8848C64.0643 24.8895 63.9157 24.8854 63.7671 24.8854C63.7388 24.8474 63.7105 24.8093 63.6821 24.7713Z" fill="#222222"/>
<path d="M50.0684 5.09113V32.4654H43.9512V5.95187C45.9769 5.66684 47.994 5.38301 50.0684 5.09113Z" fill="#222222"/>
<path d="M83.3314 25.4109V32.4586H62.335V26.0483C69.3062 25.8366 76.305 25.6242 83.3314 25.4109Z" fill="#222222"/>
<path d="M33.4009 32.4651H28.123V8.18651C29.885 7.93791 31.623 7.69268 33.4009 7.44183V32.4651Z" fill="#222222"/>
<path d="M18.5241 9.53058V32.4668H13.8418V31.8345C13.8418 24.831 13.8374 17.8276 13.8286 10.8241C13.8271 10.2803 14.0128 10.1364 14.5129 10.0799C15.835 9.93058 17.1505 9.72284 18.5241 9.53058Z" fill="#222222"/>
<path d="M69.05 13.9162C66.8635 14.1107 64.7382 14.2998 62.5663 14.4931C62.4526 12.9237 62.5531 11.3462 62.8648 9.80397C63.4448 6.92709 64.7963 4.539 67.3299 2.92943C68.5277 2.16846 69.8327 1.67238 71.262 1.38434C71.2833 1.54068 71.3141 1.66245 71.3144 1.78431C71.3196 3.79258 71.3259 5.80089 71.3144 7.80909C71.3134 7.98476 71.2377 8.26072 71.1148 8.31971C69.5081 9.09127 69.1502 10.5313 69.0556 12.1084C69.021 12.6856 69.05 13.2667 69.05 13.9162Z" fill="#222222"/>
<path d="M3.90771 16.95C5.36723 16.7997 6.79928 16.6522 8.27959 16.4998V32.4675H3.90771V16.95Z" fill="#222222"/>
<path d="M12.1908 10.418C12.1908 11.995 12.1997 13.5115 12.1732 15.0274C12.1712 15.1435 11.9294 15.3395 11.7825 15.3565C9.30617 15.6433 6.82704 15.9061 4.34883 16.1772C2.91532 16.3339 1.48237 16.4957 0 16.6607V12.1336C4.02805 11.5667 8.07924 10.9966 12.1908 10.418Z" fill="#222222"/>
<path d="M60.2406 26.1115V32.4613H51.2983V26.3854C54.2461 26.2951 57.2149 26.2041 60.2406 26.1115Z" fill="#222222"/>
<path d="M60.2223 10.034C57.2283 10.3621 54.2711 10.6862 51.2788 11.0141V4.92319C54.2459 4.5052 57.2114 4.08744 60.2223 3.66327V10.034Z" fill="#222222"/>
<path d="M34.4785 32.4608V26.8982C37.0598 26.8174 39.6187 26.7373 42.2174 26.656V32.4608H34.4785Z" fill="#222222"/>
<path d="M51.291 15.6177C53.2485 15.4519 55.1687 15.2893 57.1723 15.1196C57.1723 15.4818 57.1723 15.7757 57.1723 16.0695C57.1722 17.72 57.1725 19.3705 57.1731 21.021C57.1733 21.2709 57.2006 21.5112 56.8309 21.5298C54.998 21.6218 53.1656 21.7254 51.291 21.8273V15.6177Z" fill="#222222"/>
<path d="M26.2145 32.4676H19.4834V27.3518C21.7273 27.282 23.9482 27.213 26.2145 27.1426V32.4676Z" fill="#222222"/>
<path d="M26.2199 8.45197V13.778C23.9732 14.0246 21.7487 14.2688 19.4858 14.5172V9.39513C21.7099 9.08363 23.9406 8.77121 26.2199 8.45197Z" fill="#222222"/>
<path d="M23.9011 17.9681V23.3249C22.4413 23.4036 20.9872 23.4819 19.4927 23.5625V18.3557C20.9374 18.2287 22.4007 18.1 23.9011 17.9681Z" fill="#222222"/>
<g clip-path="url(#clip0_2418_339)">
<rect x="291" y="11" width="22" height="12" fill="white"/>
<path fill-rule="evenodd" clip-rule="evenodd" d="M291.235 5.7912H317.13C317.353 5.7912 317.534 5.97064 317.534 6.19196V23.5025C317.534 23.6102 317.492 23.7118 317.413 23.7896L313.691 27.4742C313.612 27.552 313.509 27.5938 313.4 27.5938H286.805C286.581 27.5938 286.4 27.4144 286.4 27.193V10.5764C286.4 10.4687 286.442 10.3671 286.521 10.2893L290.945 5.91083C291.024 5.83307 291.127 5.7912 291.235 5.7912ZM300.06 13.2741L300.652 12.6879V11.3181H291.64V17.6705H297.636L298.404 18.4301V19.2915L297.582 20.105H291.634V22.061H299.178L300.646 20.6075V17.1202L299.22 15.7086H293.883V13.2741H300.06ZM305.355 13.2741H309.484L309.471 13.2801L310.039 13.8423V15.2659H312.282V13.0887H312.287L310.505 11.3241V11.3121L304.303 11.3241L302.429 13.1784V20.6194L303.898 22.0729H310.801L312.294 20.5955V16.205H308.903L307.681 17.4133C307.64 17.4552 307.616 17.509 307.616 17.5688V17.9397C307.616 18.0593 307.719 18.161 307.84 18.161H310.052V19.6923L309.628 20.1109H305.585L304.684 19.2197V13.938L305.355 13.2741Z" fill="#E72487"/>
<path d="M252.794 18.7052H245.578C245.372 18.7052 245.209 18.8667 245.209 19.07V23.2212C245.209 23.4246 245.372 23.586 245.578 23.586H259.679C259.885 23.586 260.048 23.7476 260.048 23.9509V25.0635C260.048 25.1593 260.005 25.255 259.939 25.3207L257.848 27.3904C257.781 27.4621 257.684 27.498 257.588 27.498H240.682C240.476 27.498 240.313 27.3365 240.313 27.1331V8.43491C240.313 8.3392 240.355 8.2435 240.422 8.1777L242.513 6.10809C242.58 6.03632 242.676 6.00043 242.773 6.00043H259.679C259.885 6.00043 260.048 6.16193 260.048 6.3653V7.47188C260.048 7.56759 260.005 7.66329 259.939 7.72908L257.842 9.80467C257.775 9.87645 257.678 9.91234 257.582 9.91234H245.578C245.372 9.91234 245.209 10.0738 245.209 10.2772V14.4284C245.209 14.6318 245.372 14.7933 245.578 14.7933H252.794C253 14.7933 253.163 14.9548 253.163 15.1581V18.3403C253.163 18.5437 253 18.7052 252.794 18.7052Z" fill="#E72487"/>
<path d="M203.459 6.00659H201.392C201.296 6.00659 201.199 6.04248 201.132 6.11426L199.041 8.18387C198.975 8.24967 198.932 8.34537 198.932 8.44107V27.1333C198.932 27.3367 199.095 27.4982 199.301 27.4982H215.325C215.421 27.4982 215.518 27.4623 215.584 27.3906L217.676 25.3209C217.742 25.2552 217.785 25.1593 217.785 25.0636V23.9511C217.785 23.7478 217.621 23.5862 217.416 23.5862H204.197C203.991 23.5862 203.828 23.4248 203.828 23.2214V6.37146C203.828 6.16809 203.665 6.00659 203.459 6.00659Z" fill="#E72487"/>
<path d="M211.166 8.18387L213.258 6.11426C213.324 6.04248 213.421 6.00659 213.518 6.00659H236.408C236.613 6.00659 236.776 6.16809 236.776 6.37146V7.48402C236.776 7.57974 236.734 7.67544 236.668 7.74123L234.576 9.81084C234.51 9.88262 234.413 9.9185 234.316 9.9185H226.737C226.531 9.9185 226.368 10.08 226.368 10.2834V27.1333C226.368 27.3367 226.205 27.4982 225.999 27.4982H221.841C221.635 27.4982 221.472 27.3367 221.472 27.1333V10.2834C221.472 10.08 221.309 9.9185 221.103 9.9185H211.426C211.221 9.9185 211.058 9.75701 211.058 9.55363V8.44107C211.058 8.34537 211.1 8.24967 211.166 8.18387Z" fill="#E72487"/>
<path d="M268.715 23.2214V6.37146C268.715 6.16809 268.552 6.00659 268.346 6.00659H266.279C266.182 6.00659 266.085 6.04248 266.019 6.11426L263.928 8.18387C263.861 8.24967 263.819 8.34537 263.819 8.44107L263.789 27.4982H280.175C280.272 27.4982 280.368 27.4623 280.435 27.3906L282.526 25.3209C282.593 25.2552 282.635 25.1593 282.635 25.0636V23.9511C282.635 23.7478 282.472 23.5862 282.266 23.5862H269.077C268.872 23.5862 268.709 23.4248 268.709 23.2214H268.715Z" fill="#E72487"/>
<path fill-rule="evenodd" clip-rule="evenodd" d="M194.048 25.0697V6.37146C194.048 6.16809 193.885 6.00659 193.68 6.00659H187.919C187.823 6.00659 187.726 6.04248 187.659 6.11426L166.698 26.8762C166.468 27.1035 166.631 27.4982 166.958 27.4982H171.588C171.684 27.4982 171.781 27.4623 171.847 27.3906L175.589 23.688C175.655 23.6221 175.752 23.5803 175.849 23.5803H188.784C188.989 23.5803 189.152 23.7419 189.152 23.9452V27.1274C189.152 27.3307 189.316 27.4922 189.521 27.4922H191.6C191.697 27.4922 191.794 27.4563 191.86 27.3845L193.94 25.327C194.006 25.2611 194.048 25.1654 194.048 25.0697ZM189.152 19.3035C189.152 19.5069 188.989 19.6684 188.784 19.6684H180.539C180.213 19.6684 180.05 19.2736 180.279 19.0463L188.524 10.8875C188.753 10.6602 189.152 10.8217 189.152 11.1447V19.3035Z" fill="#E72487"/>
</g>
<defs>
<clipPath id="clip0_2418_339">
<rect width="152" height="22" fill="white" transform="translate(166.59 5.78516)"/>
</clipPath>
</defs>
</svg>
